<?xml version="1.0" encoding="UTF-8" standalone="no"?>
<svg
   overflow="visible"
   viewBox="0 0 324.4085039370079 112.27454068241471"
   aria-label="picture"
   version="1.1"
   id="svg6"
   sodipodi:docname="bird.svg"
   inkscape:version="1.4 (e7c3feb100, 2024-10-09)"
   xmlns:inkscape="http://www.inkscape.org/namespaces/inkscape"
   xmlns:sodipodi="http://sodipodi.sourceforge.net/DTD/sodipodi-0.dtd"
   xmlns="http://www.w3.org/2000/svg"
   xmlns:svg="http://www.w3.org/2000/svg">
  <defs
     id="defs6" />
  <sodipodi:namedview
     id="namedview6"
     pagecolor="#ffffff"
     bordercolor="#000000"
     borderopacity="0.25"
     inkscape:showpageshadow="2"
     inkscape:pageopacity="0.0"
     inkscape:pagecheckerboard="0"
     inkscape:deskcolor="#d1d1d1"
     inkscape:zoom="3.5387481"
     inkscape:cx="157.68288"
     inkscape:cy="46.344073"
     inkscape:window-width="1920"
     inkscape:window-height="1011"
     inkscape:window-x="0"
     inkscape:window-y="0"
     inkscape:window-maximized="1"
     inkscape:current-layer="svg6" />
  <path
     style="fill:#c30c13;fill-opacity:1"
     d="m 228.07714,97.857888 c -0.27873,-0.11134 -0.72079,-0.40178 -0.98235,-0.64544 -1.11363,-1.0374 -1.0453,1.65335 -1.0453,-41.165794 V 16.416415 l 0.4562,-0.668779 c 0.2509,-0.367829 0.7138,-0.859216 1.02864,-1.091973 l 0.57245,-0.423193 h 40.01444 40.01444 l 0.55991,0.417092 c 0.30796,0.229401 0.74804,0.668485 0.97796,0.975743 l 0.41804,0.55865 V 56.10784 96.031728 l -0.41804,0.55865 c -0.22992,0.30725 -0.66999,0.74634 -0.97794,0.97574 l -0.5599,0.41709 -39.77588,0.0386 c -26.15173,0.0253 -39.94947,-0.0308 -40.28267,-0.16387 z m 29.27053,-5.74252 c 0.31941,-0.16621 0.78099,-0.3022 1.02571,-0.3022 0.63985,0 1.0627,-0.40864 1.20158,-1.161175 0.0665,-0.360489 0.39398,-0.906689 0.72768,-1.213779 0.56722,-0.521993 0.61931,-0.696641 0.80004,-2.682458 0.10632,-1.168262 0.33718,-2.461619 0.51302,-2.874127 0.27567,-0.646674 0.66297,-2.801957 1.07393,-5.976344 0.10956,-0.846246 0.12379,-0.85976 0.90548,-0.85976 0.43679,0 1.81633,0.179491 3.06565,0.398868 4.4954,0.789385 7.14914,0.869551 9.60783,0.290239 0.83646,-0.197086 3.66242,-1.685101 4.69781,-2.473649 0.8015,-0.610414 0.94582,-0.655306 1.37314,-0.427131 0.4032,0.215301 0.53679,0.201436 0.85858,-0.08912 0.36517,-0.329729 0.45073,-0.265699 2.05008,1.53423 4.55187,5.12272 7.50206,11.549677 6.11994,13.332235 -0.20573,0.265347 -0.42942,0.767687 -0.49708,1.116311 -0.0677,0.34862 -0.18295,0.87207 -0.25618,1.1632 -0.13,0.51677 -0.10976,0.52928 0.85191,0.52658 1.70567,-0.005 1.89746,-0.12016 1.89746,-1.14147 0,-0.779056 0.10647,-0.998871 0.82339,-1.700006 0.53217,-0.520456 0.7878,-0.929021 0.72276,-1.155194 -0.0554,-0.192465 -0.28795,-0.993428 -0.5169,-1.779917 -0.22894,-0.786489 -0.68093,-2.685146 -1.00441,-4.219238 l -0.58815,-2.789255 -1.02363,-0.89342 c -0.61989,-0.541035 -1.24853,-1.350371 -1.59383,-2.051953 -0.54372,-1.104727 -0.56862,-1.280674 -0.5363,-3.788388 0.0412,-3.198724 0.42794,-4.911457 0.45556,-2.017657 0.0438,4.590211 0.82734,7.054599 2.61744,8.232521 0.59731,0.393041 1.4551,0.48065 1.4551,0.148613 0,-0.116137 -0.4544,-0.755938 -1.00978,-1.42178 -1.49581,-1.793334 -1.67416,-2.602754 -1.59197,-7.22518 l 0.0673,-3.785411 -0.57138,-1.160948 c -0.61888,-1.257448 -1.54299,-2.123536 -3.49007,-3.270916 -1.72586,-1.017019 -1.71707,-1.004912 -1.71707,-2.364611 0,-0.669554 -0.10376,-1.628485 -0.23057,-2.13096 -0.21126,-0.83709 -0.3204,-0.953228 -1.3034,-1.386975 -1.55962,-0.688177 -2.07861,-1.565402 -2.36357,-3.995071 -0.12348,-1.052781 -0.16669,-2.064476 -0.096,-2.248211 0.096,-0.249693 0.38777,-0.334064 1.15513,-0.334064 0.56466,0 1.32915,-0.126105 1.69887,-0.280234 0.73714,-0.307298 1.47253,-1.330267 1.67213,-2.326024 0.23825,-1.188576 -0.79663,-3.058043 -1.69284,-3.058043 -0.37312,0 -0.31117,0.427719 0.14649,1.011482 0.52413,0.668545 0.52006,1.823103 -0.009,2.493903 -0.59801,0.758519 -1.50222,0.860312 -2.9433,0.331345 -0.66242,-0.24315 -1.67456,-0.581174 -2.24921,-0.751165 l -1.0448,-0.309075 -0.0703,-1.699092 c -0.0392,-0.946767 -0.17004,-1.762994 -0.2955,-1.843412 -0.44823,-0.287306 -1.70471,-3.237353 -1.9654,-4.614485 -0.10695,-0.564971 -0.0423,-0.669325 0.65807,-1.062056 1.69605,-0.951074 1.98666,-0.448932 1.63186,2.819648 -0.28583,2.633169 -0.21936,3.076212 0.44705,2.979632 0.38674,-0.05605 0.52466,-0.364217 1.02492,-2.290024 1.00804,-3.880554 0.80559,-5.429128 -0.7971,-6.097262 -0.91101,-0.379782 -1.61659,-0.231022 -3.34858,0.705993 l -1.3578,0.734575 -1.88629,-0.65837 c -1.03745,-0.362104 -2.09157,-0.65709 -2.34248,-0.655526 -0.27161,0.0017 -0.4562,-0.119939 -0.4562,-0.300601 0,-0.226186 0.23984,-0.303444 0.942,-0.303444 h 0.94201 l -0.54694,-0.505741 c -0.30082,-0.278158 -0.6791,-0.505742 -0.84063,-0.505742 -0.22081,0 -0.29369,-0.276079 -0.29369,-1.11263 0,-0.611947 0.0908,-1.112631 0.20182,-1.112631 0.111,0 1.06983,-0.887576 2.13073,-1.97239 1.83221,-1.873507 1.94394,-1.952881 2.22867,-1.583227 0.16486,0.214041 0.35688,0.692972 0.42669,1.064291 0.0698,0.37132 0.20784,0.72501 0.30672,0.785979 0.0989,0.06097 0.17977,0.378581 0.17977,0.705804 0,0.4484 0.0943,0.59495 0.38294,0.59495 0.277,0 0.41972,-0.195554 0.51585,-0.706842 l 0.13291,-0.706842 0.52251,0.341585 c 0.49664,0.324678 0.53721,0.322116 0.81974,-0.05177 0.21787,-0.288324 0.26631,-0.703614 0.18141,-1.555324 -0.16686,-1.673983 -0.57218,-2.477463 -1.62231,-3.215988 -1.33404,-0.938194 -0.78963,-1.427564 0.62067,-0.55792 0.93718,0.577895 1.48761,1.719566 1.48761,3.085507 0,0.747123 0.0895,1.133303 0.27942,1.206029 0.47186,0.180658 0.73435,-0.300131 0.73435,-1.345038 0,-1.537628 -0.40154,-2.560057 -1.41546,-3.604101 -2.01072,-2.070475 -4.79967,-1.759929 -7.84993,0.874079 l -0.92374,0.797683 -1.74843,-1.698058 c -2.01164,-1.953693 -3.49821,-2.775527 -5.0205,-2.775527 -0.98184,0 -1.04427,-0.306354 -0.0893,-0.438037 0.79605,-0.109765 0.72547,-0.532688 -0.12307,-0.737421 -1.5743,-0.379848 -2.28981,-0.17157 -3.33576,0.971007 -0.67711,0.739664 -0.74117,1.211863 -0.18412,1.357204 0.37132,0.09688 0.37598,0.134299 0.0739,0.594264 -0.36364,0.553729 -0.22666,0.864214 0.21861,0.49551 0.2441,-0.202134 0.27347,-0.167863 0.17571,0.205103 -0.0769,0.293478 -0.0415,0.400996 0.10284,0.312006 0.12892,-0.0795 0.24721,0.05412 0.28538,0.322385 0.042,0.295375 0.22716,0.481121 0.52106,0.522769 0.49545,0.07021 0.86203,-0.565044 0.86203,-1.493847 0,-0.377712 0.10768,-0.492571 0.46178,-0.492571 1.15126,0 2.16182,1.562132 2.16959,3.353783 0.005,1.252502 0.6442,2.305256 2.72979,4.49892 1.34575,1.415483 1.41406,1.535176 1.55878,2.731002 0.19589,1.618822 0.0703,2.071965 -0.65743,2.372734 -0.32773,0.135446 -0.77442,0.49643 -0.99263,0.802187 -0.61961,0.86819 -1.29934,0.888065 -3.00993,0.08801 -0.82006,-0.38355 -1.66258,-0.697363 -1.87228,-0.697363 -0.72045,0 -1.59328,1.034438 -1.79181,2.123588 -0.20966,1.150111 -0.0327,1.517748 0.73045,1.517748 0.60044,0 2.77776,1.440375 3.23899,2.142715 0.28179,0.42909 0.31376,0.861608 0.2045,2.76687 -0.118,2.057639 -0.17508,2.303749 -0.64247,2.770082 l -0.51297,0.511806 -1.162,-0.439334 c -0.6391,-0.241634 -1.9921,-0.754981 -3.00667,-1.140771 -1.72743,-0.656859 -3.67799,-1.900012 -4.62424,-2.947183 -0.43877,-0.485569 -0.93166,-0.564238 -0.93166,-0.148702 0,0.406079 0.59179,1.757087 1.054,2.406205 l 0.39935,0.560832 -0.60588,0.688495 c -0.33323,0.378672 -0.67173,0.987638 -0.75222,1.353257 -0.0805,0.365619 -0.59104,1.213122 -1.13457,1.883341 -0.54353,0.670218 -0.98823,1.324783 -0.98823,1.454588 0,0.310031 1.16768,0.720406 1.32539,0.465802 0.21847,-0.35269 0.495,-0.193671 0.44633,0.256661 -0.085,0.786087 0.59899,0.658033 1.68402,-0.315293 1.18475,-1.06278 1.86103,-1.266069 2.95141,-0.887191 3.10025,1.077243 4.19488,3.541995 3.53586,7.9616 -0.13902,0.93228 -0.29233,1.695054 -0.34068,1.695054 -0.0484,0 -1.29346,-0.407336 -2.76689,-0.905191 -2.82909,-0.955982 -5.96388,-1.468343 -7.45044,-1.217759 -0.42364,0.07141 -1.19508,0.06628 -1.71432,-0.01141 -0.86314,-0.129143 -1.05103,-0.269143 -2.19203,-1.6333 -1.32109,-1.579484 -1.87245,-1.835784 -2.08986,-0.971485 l -0.13095,0.520563 -0.68433,-0.661777 c -0.53722,-0.519513 -0.73733,-0.608901 -0.93086,-0.415812 -0.35432,0.353524 0.14238,1.184844 2.26157,3.785182 l 1.77015,2.17204 -0.87328,0.80314 c -1.16003,1.066856 -2.1001,2.514209 -2.1001,3.233356 0,0.727509 -0.41379,1.545871 -1.54739,3.060337 -0.72674,0.970913 -0.88568,1.34042 -0.88568,2.059089 0,0.541131 0.12676,1.00231 0.33169,1.206775 0.30708,0.306381 0.38229,0.281996 1.01378,-0.328679 0.80563,-0.779085 0.94374,-0.369135 0.15305,0.454303 -0.89215,0.929097 -0.003,1.372048 1.23868,0.616918 0.33455,-0.203492 0.98693,-0.430358 1.44974,-0.504147 1.70688,-0.272138 3.16083,-0.99378 4.28966,-2.129088 1.0783,-1.084491 1.09537,-1.092535 2.07366,-0.976932 1.19243,0.140906 3.02413,0.975307 3.98084,1.813401 0.38588,0.33804 0.93333,1.070891 1.21656,1.628556 0.28323,0.557665 0.83537,1.495403 1.22697,2.083863 l 0.712,1.069925 -0.23263,2.587167 c -0.12794,1.422942 -0.3188,2.951301 -0.42413,3.396353 -0.10532,0.445053 -0.19591,1.628487 -0.20129,2.629854 -0.0155,2.882843 -0.67595,5.176223 -1.63279,5.669907 -0.51552,0.265982 -1.20567,1.672986 -1.20567,2.457986 0,0.36995 1.36538,0.34572 2.10142,-0.0373 z m 8.96855,-28.552106 c -0.2825,-0.08286 -2.50119,-1.214853 -3.10737,-1.5854 -0.0254,-0.01555 0.31269,-1.160595 0.75139,-2.544552 l 0.79764,-2.516284 2.18856,-0.0084 c 2.73109,-0.01051 3.71917,-0.325135 5.7072,-1.817317 1.47474,-1.10692 2.47616,-1.714452 2.82598,-1.714452 0.0994,0 0.28572,0.349612 0.41403,0.776916 0.28788,0.95866 2.17182,2.808149 3.5928,3.527087 1.35262,0.684351 1.70353,1.123918 1.84436,2.310329 0.10913,0.919343 0.0726,1.04221 -0.42613,1.43363 -0.86102,0.675747 -3.79174,1.430663 -7.20769,1.85661 -2.06989,0.258101 -6.84064,0.440284 -7.38077,0.281853 z m 16.3632,-2.724744 c 0.0654,-0.265349 0.18136,-0.960378 0.25772,-1.544509 0.0764,-0.584131 0.2117,-1.062056 0.30075,-1.062056 0.30645,0 1.00138,1.065692 1.21777,1.867498 0.11922,0.441758 0.18796,0.831009 0.15275,0.865001 -0.0352,0.03399 -0.51038,0.128115 -1.05594,0.209162 -0.9718,0.144366 -0.98952,0.137564 -0.87305,-0.335096 z m -29.66348,-9.345649 c 0,-0.03481 0.28753,-0.330674 0.63896,-0.657464 l 0.63895,-0.594163 -0.47433,0.657464 c -0.39536,0.548012 -0.80358,0.849845 -0.80358,0.594163 z m 12.16533,-3.051257 c -0.50182,-0.133477 -0.90742,-0.329365 -0.90134,-0.435307 0.006,-0.105941 0.21138,-0.632576 0.4562,-1.1703 0.24483,-0.537724 0.44914,-1.083925 0.45404,-1.213779 0.008,-0.218473 0.13846,0.0815 0.79771,1.83744 0.18856,0.502257 0.36724,0.657463 0.7569,0.657463 0.45921,0 0.49766,-0.06051 0.38567,-0.606889 -0.0684,-0.333789 -0.18148,-0.887605 -0.25127,-1.230702 -0.17825,-0.876388 0.4719,-3.154603 1.00696,-3.528527 0.50155,-0.350504 2.61129,-0.393357 3.98605,-0.08096 1.64708,0.374273 4.10794,1.708144 4.61268,2.50024 0.96039,1.507122 0.58735,1.843269 -2.58513,2.32943 -1.39394,0.213613 -3.53072,0.576468 -4.74841,0.806344 -2.48474,0.469075 -2.68983,0.476077 -3.97006,0.135551 z m 10.39121,-21.564879 c -0.52942,-0.428256 -0.57641,-0.607623 -0.1592,-0.607623 0.27189,0 0.8386,0.755804 0.68251,0.910246 -0.0369,0.03652 -0.2724,-0.09966 -0.52331,-0.302623 z M 95.06955,96.274738 c -1.27554,-0.24882 -2.26228,-1.08681 -1.92358,-1.6336 0.19141,-0.30901 1.43974,-0.2326 1.72083,0.10533 0.15144,0.18206 0.59488,0.30344 1.10855,0.30344 1.14287,0 1.52863,-0.43964 1.52276,-1.73545 -0.004,-0.98752 -0.007,-0.99185 -0.35816,-0.53712 -0.51044,0.66167 -1.63166,0.92356 -2.59611,0.6064 -2.41907,-0.79552 -2.52176,-5.362979 -0.14287,-6.354691 0.93651,-0.390414 1.79964,-0.228389 2.53673,0.476188 l 0.56492,0.539996 v -0.54359 c 0,-0.510439 0.0564,-0.543589 0.92444,-0.543589 h 0.92445 l -0.0627,3.924076 c -0.0574,3.589 -0.0973,3.96215 -0.46777,4.37008 -0.80232,0.8835 -2.32982,1.29984 -3.75145,1.02253 z m 2.01284,-4.59 c 0.62423,-0.79178 0.58406,-2.356356 -0.0774,-3.016361 -0.6236,-0.622183 -1.3298,-0.633968 -1.89693,-0.03165 -0.5746,0.610251 -0.74758,1.550544 -0.45048,2.448731 0.40959,1.23828 1.6746,1.55091 2.42485,0.59928 z m 108.86108,4.58722 c -1.32735,-0.25231 -2.6126,-1.42426 -1.87264,-1.70757 0.57429,-0.21987 1.44633,-0.12665 1.70312,0.18208 0.15144,0.18206 0.59489,0.30344 1.10856,0.30344 1.13673,0 1.52726,-0.44051 1.52726,-1.72272 v -0.98283 l -0.60394,0.57731 c -0.47894,0.45781 -0.79038,0.5773 -1.50468,0.5773 -1.62809,0 -2.5264,-0.95079 -2.69968,-2.857395 -0.20064,-2.207703 0.92764,-3.784669 2.70783,-3.784669 0.67223,0 0.9915,0.128271 1.47889,0.594163 l 0.62158,0.594164 v -0.54359 c 0,-0.509389 0.0574,-0.543589 0.9124,-0.543589 h 0.9124 l -3.1e-4,3.590763 c -2.7e-4,3.015923 -0.0571,3.703013 -0.35482,4.291913 -0.59188,1.17063 -2.21052,1.75921 -3.93597,1.43123 z m 2.04608,-4.58722 c 0.7963,-1.01004 0.36639,-3.164062 -0.68398,-3.427094 -0.73748,-0.184676 -1.29735,0.07579 -1.6578,0.771233 -0.40039,0.772518 -0.27799,2.226921 0.23501,2.792501 0.53729,0.59236 1.58564,0.52437 2.10677,-0.13664 z M 33.0089,93.642788 c -0.87819,-0.26553 -1.55317,-0.80732 -1.89118,-1.51802 -0.40327,-0.8479 -0.41678,-2.777905 -0.0248,-3.534293 0.80583,-1.554781 2.60947,-2.181693 4.22519,-1.4686 1.12408,0.496106 1.59275,1.170113 1.718,2.470671 l 0.0956,0.993123 -2.30613,0.05743 -2.30613,0.05743 0.0554,0.49497 c 0.0874,0.78143 0.62378,1.22455 1.48224,1.22455 0.42081,0 0.90197,-0.13655 1.06924,-0.30344 0.31124,-0.31054 1.95514,-0.43343 1.95514,-0.14616 0,0.4041 -0.74106,1.1361 -1.49684,1.47853 -0.87651,0.39714 -1.69871,0.459 -2.57579,0.19381 z m 2.45059,-4.313314 c 0,-1.167921 -1.84596,-1.607821 -2.6211,-0.62462 -0.23113,0.293162 -0.42023,0.611779 -0.42023,0.708037 0,0.09626 0.6843,0.175016 1.52067,0.175016 1.09881,0 1.52066,-0.07169 1.52066,-0.258433 z m 16.57333,4.217514 c -0.41924,-0.14926 -0.88985,-0.37704 -1.04579,-0.50617 -0.97011,-0.80329 -1.24519,-3.342539 -0.50454,-4.657368 0.8061,-1.431014 2.51689,-1.959141 4.093,-1.263527 1.1284,0.498012 1.59705,1.170793 1.72243,2.472623 l 0.0956,0.993123 -2.30613,0.05743 -2.30614,0.05743 0.0554,0.49497 c 0.0874,0.78143 0.62378,1.22455 1.48224,1.22455 0.42081,0 0.90197,-0.13655 1.06925,-0.30344 0.31123,-0.31054 1.95514,-0.43343 1.95514,-0.14616 0,0.4041 -0.74106,1.1361 -1.49684,1.47853 -0.98113,0.44454 -1.76373,0.4718 -2.81363,0.098 z m 2.68843,-4.262526 c 0,-0.541708 -0.77275,-1.112631 -1.50595,-1.112631 -0.50925,0 -0.80721,0.142422 -1.11516,0.533023 -0.23112,0.293162 -0.42022,0.611779 -0.42022,0.708037 0,0.09626 0.6843,0.175016 1.52066,0.175016 1.21653,0 1.52067,-0.06069 1.52067,-0.303445 z m 27.43174,4.327696 c -1.08391,-0.31271 -1.27631,-0.80415 -1.27631,-3.260078 v -2.180249 h -0.50689 c -0.42537,0 -0.50689,-0.09534 -0.50689,-0.592819 0,-0.460758 0.10163,-0.607221 0.4562,-0.657464 0.36645,-0.05193 0.46858,-0.213895 0.51913,-0.823256 0.0625,-0.753275 0.0693,-0.758611 0.96309,-0.758611 h 0.90016 v 0.809185 c 0,0.764232 0.0338,0.809186 0.60826,0.809186 0.54068,0 0.60827,0.06743 0.60827,0.60689 0,0.539457 -0.0676,0.606889 -0.60827,0.606889 h -0.60826 v 2.003175 2.003172 l 0.60826,0.21157 c 0.76886,0.26741 0.86802,1.12745 0.15207,1.31888 -0.52918,0.14149 -0.46848,0.14597 -1.30883,-0.0965 z m 4.95649,-0.0652 c -0.41924,-0.14927 -0.88984,-0.37704 -1.04579,-0.50617 -0.53541,-0.44335 -0.95811,-1.65434 -0.95811,-2.744876 0,-2.008878 1.00658,-3.21053 2.89191,-3.452324 1.7849,-0.228914 3.42247,1.203642 3.42247,2.994001 v 0.761768 h -2.23668 c -2.50184,0 -2.82257,0.181851 -2.07937,1.179001 0.51948,0.69699 1.89667,0.86661 2.38797,0.29411 0.23516,-0.27403 0.52656,-0.35019 1.12283,-0.29345 0.44289,0.0421 0.80525,0.16509 0.80525,0.27322 0,0.4042 -1.17505,1.34887 -1.94216,1.56137 -1.01247,0.28047 -1.42603,0.26883 -2.36832,-0.0666 z m 2.68843,-4.262528 c 0,-0.541708 -0.77274,-1.112631 -1.50595,-1.112631 -0.50924,0 -0.80721,0.142422 -1.11515,0.533023 -0.23113,0.293162 -0.42023,0.611779 -0.42023,0.708037 0,0.09626 0.6843,0.175016 1.52067,0.175016 1.21653,0 1.52066,-0.06069 1.52066,-0.303445 z m 17.0981,4.266418 c -0.76564,-0.34378 -1.08043,-0.86255 -1.08043,-1.78055 0,-1.275665 0.70176,-1.782514 2.87269,-2.074813 1.13653,-0.153025 1.51287,-0.50304 1.18935,-1.106162 -0.31026,-0.578427 -1.44768,-0.631278 -2.05045,-0.09528 -0.37732,0.335525 -1.80883,0.384683 -1.80883,0.06212 0,-0.12239 0.30203,-0.523872 0.67117,-0.892184 1.2189,-1.216133 3.72334,-1.126101 4.68378,0.168378 0.36735,0.495117 0.433,0.918015 0.49462,3.186171 l 0.0711,2.61528 h -0.93277 c -0.80217,0 -0.93276,-0.0575 -0.93276,-0.41065 v -0.41065 l -0.56427,0.41625 c -0.74316,0.54819 -1.81528,0.68034 -2.61316,0.32209 z m 2.67976,-1.42507 c 0.27884,-0.27821 0.49767,-0.73307 0.49767,-1.03445 0,-0.525084 -0.0224,-0.534562 -0.93832,-0.39752 -1.31346,0.19652 -1.48094,0.286 -1.62777,0.86967 -0.26101,1.03762 1.19524,1.4335 2.06842,0.5623 z m 5.57184,1.4483 c -1.00317,-0.34711 -1.21536,-0.92664 -1.21883,-3.32874 l -0.003,-2.073539 h -0.50687 c -0.42804,0 -0.50689,-0.0944 -0.50689,-0.606889 0,-0.512485 0.0788,-0.60689 0.50689,-0.60689 0.4562,0 0.50689,-0.08092 0.50689,-0.809186 v -0.809185 h 0.91239 0.9124 v 0.809185 c 0,0.764232 0.0338,0.809186 0.60827,0.809186 0.54068,0 0.60826,0.06743 0.60826,0.60689 0,0.539457 -0.0676,0.606889 -0.60826,0.606889 h -0.60827 v 1.881357 c 0,1.924102 0.15488,2.366872 0.82794,2.366872 0.21121,0 0.38215,0.21206 0.44843,0.55631 0.0589,0.30598 0.0924,0.56844 0.0743,0.58326 -0.23701,0.19478 -1.40752,0.20345 -1.95367,0.0145 z m 5.13489,0.041 c -0.83264,-0.24067 -1.84022,-1.40026 -2.01241,-2.31602 -0.19919,-1.059372 0.0147,-2.490344 0.46138,-3.087319 0.76485,-1.022119 1.4169,-1.348148 2.69627,-1.348148 1.79844,0 2.82839,0.941273 3.13974,2.869418 l 0.13777,0.853196 -2.39909,0.05714 -2.39908,0.05714 0.0629,0.50574 c 0.13132,1.05603 1.67488,1.60349 2.58486,0.91677 0.43226,-0.32621 1.91424,-0.42151 1.91424,-0.12311 0,0.10273 -0.23396,0.4642 -0.51992,0.80327 -0.77163,0.91496 -2.209,1.23324 -3.66665,0.81192 z m 2.56453,-4.365317 c 0,-0.59007 -0.62645,-1.077986 -1.38406,-1.077986 -0.79381,0 -1.45452,0.473706 -1.45452,1.042836 0,0.327242 0.17492,0.37324 1.41929,0.37324 1.19106,0 1.41929,-0.05437 1.41929,-0.33809 z m 4.66741,4.231977 c -1.15475,-0.57885 -1.62608,-1.48832 -1.62608,-3.137648 0,-1.069922 0.10562,-1.596696 0.43872,-2.188018 0.82386,-1.46254 2.68019,-1.790243 3.73126,-0.658688 l 0.47633,0.512809 0.0592,-1.689303 0.0592,-1.689303 0.86171,-0.06221 0.86171,-0.06221 v 4.563303 4.563298 h -0.9124 c -0.85908,0 -0.91266,-0.0325 -0.9169,-0.55631 l -0.005,-0.55632 -0.35032,0.44478 c -0.33477,0.42504 -1.22182,0.8705 -1.73211,0.86984 -0.13213,-1.8e-4 -0.55776,-0.15949 -0.94585,-0.35402 z m 2.53962,-1.55828 c 0.40971,-0.40878 0.49767,-0.69646 0.49767,-1.62757 0,-0.931108 -0.088,-1.218787 -0.49767,-1.627567 -0.5734,-0.572102 -1.05241,-0.625471 -1.67964,-0.187137 -0.93578,0.653961 -0.96051,2.841184 -0.0405,3.584794 0.60291,0.48734 1.1329,0.44342 1.72018,-0.14252 z m 16.91312,1.45745 c -2.39054,-1.20275 -2.39054,-4.967289 0,-6.170041 0.49757,-0.250342 1.18535,-0.455167 1.5284,-0.455167 1.0963,0 2.38011,0.805565 2.88926,1.812959 0.92031,1.820904 0.31246,3.970349 -1.36087,4.812249 -0.49757,0.25034 -1.18535,0.45517 -1.52839,0.45517 -0.34305,0 -1.03083,-0.20483 -1.5284,-0.45517 z m 2.12758,-1.08657 c 0.90003,-0.34459 1.19987,-2.3496 0.51819,-3.465099 -0.32495,-0.53175 -0.53202,-0.657464 -1.08297,-0.657464 -1.06225,0 -1.45369,0.582496 -1.45369,2.163225 0,1.134308 0.0647,1.363828 0.47866,1.698278 0.4937,0.39887 0.96927,0.4795 1.53981,0.26106 z m 13.03419,1.26327 c -0.41924,-0.15514 -0.90426,-0.39966 -1.07783,-0.54338 -1.00929,-0.83574 -1.30072,-3.125229 -0.57776,-4.539008 0.46703,-0.9133 1.7908,-1.71952 2.82336,-1.71952 0.34304,0 1.02407,0.204825 1.51339,0.455167 1.03101,0.527479 1.62931,1.492038 1.62931,2.626698 v 0.761768 h -2.23667 c -2.50184,0 -2.82257,0.181855 -2.07938,1.179005 0.51736,0.69413 1.82751,0.85708 2.34084,0.29113 0.2478,-0.27319 0.54836,-0.34962 1.14982,-0.2924 l 0.81433,0.0775 -0.30204,0.58275 c -0.57068,1.10109 -2.55011,1.65585 -3.99737,1.12031 z m 2.68843,-4.273196 c 0,-0.541708 -0.77275,-1.112631 -1.50595,-1.112631 -0.50924,0 -0.80721,0.142422 -1.11515,0.533023 -0.23113,0.293162 -0.42023,0.611779 -0.42023,0.708037 0,0.09626 0.6843,0.175016 1.52067,0.175016 1.21653,0 1.52066,-0.06069 1.52066,-0.303445 z m 22.45323,4.262526 c -0.41924,-0.14926 -0.88984,-0.37704 -1.04579,-0.50617 -0.97011,-0.80329 -1.24518,-3.342539 -0.50453,-4.657368 0.8061,-1.431014 2.51688,-1.959141 4.093,-1.263527 1.12993,0.498691 1.59706,1.170876 1.72308,2.479483 l 0.0963,0.999983 h -2.26246 c -2.52956,0 -2.85011,0.179519 -2.10518,1.178999 0.51949,0.69699 1.89667,0.86661 2.38798,0.29411 0.23516,-0.27403 0.52656,-0.35019 1.12283,-0.29345 0.44288,0.0421 0.80524,0.16509 0.80524,0.27323 0,0.4042 -1.17505,1.34886 -1.94215,1.56136 -1.01248,0.28047 -1.42604,0.26883 -2.36832,-0.0666 z m 2.68843,-4.262526 c 0,-0.541708 -0.77275,-1.112631 -1.50595,-1.112631 -0.50925,0 -0.80721,0.142422 -1.11515,0.533023 -0.23113,0.293162 -0.42023,0.611779 -0.42023,0.708037 0,0.09626 0.6843,0.175016 1.52066,0.175016 1.21654,0 1.52067,-0.06069 1.52067,-0.303445 z m 4.70081,4.351516 c -0.74897,-0.17688 -1.57043,-0.8543 -1.71781,-1.41661 -0.0791,-0.30199 0.0472,-0.38194 0.70241,-0.44428 0.51392,-0.0489 0.88213,0.024 1.03217,0.2044 0.65148,0.78321 2.37886,0.64978 2.37886,-0.18375 0,-0.46079 -0.37525,-0.65421 -1.9061,-0.98247 -1.48506,-0.31845 -2.14901,-0.915788 -2.14901,-1.933399 0,-1.189184 1.35004,-2.129602 3.04133,-2.118542 1.14986,0.0075 2.63582,1.023296 2.63582,1.801798 0,0.390701 -1.41242,0.232777 -2.03669,-0.227724 -0.48774,-0.359785 -0.70587,-0.406666 -1.15763,-0.2488 -0.66973,0.234033 -0.85588,0.978507 -0.31552,1.261829 0.20192,0.10587 0.77771,0.259344 1.27953,0.341053 2.27906,0.37109 3.09972,1.706745 1.91314,3.113725 -0.76531,0.90747 -2.10629,1.20924 -3.7005,0.83277 z M 17.61702,89.097839 v -4.567344 l 1.97687,0.0011 c 2.22633,0.0013 3.38784,0.247732 4.052,0.859801 0.93652,0.863066 0.76126,2.510213 -0.33381,3.137278 l -0.59403,0.340153 0.74426,0.416113 c 1.42472,0.796555 1.52117,2.829068 0.17957,3.783838 -0.58635,0.41728 -0.92174,0.47054 -3.33835,0.53013 l -2.68651,0.0662 z m 4.61826,2.805009 c 0.44897,-0.31376 0.6038,-1.16645 0.29545,-1.627193 -0.29111,-0.435001 -1.04883,-0.687748 -2.0618,-0.687748 h -1.02711 v 1.314931 1.31492 h 1.17142 c 0.73207,0 1.34042,-0.11811 1.62204,-0.31491 z m -0.15764,-3.933313 c 0.92909,-0.926988 0.1744,-1.901301 -1.48244,-1.913849 l -1.052,-0.008 -0.0608,1.163205 -0.0608,1.163205 h 1.12528 c 0.85493,0 1.22269,-0.0972 1.53078,-0.404593 z m 4.05511,2.326409 v -3.337892 h 0.81102 c 0.74884,0 0.81102,0.04249 0.81102,0.554249 v 0.554248 l 0.51291,-0.551903 c 0.53636,-0.577128 1.34012,-0.890386 1.70587,-0.664848 0.11786,0.07267 0.21428,0.445377 0.21428,0.828231 0,0.672574 -0.0263,0.696099 -0.77959,0.696099 -1.29761,0 -1.53983,0.456592 -1.62072,3.0551 l -0.0686,2.20461 h -0.79308 -0.79308 z m 12.57083,0 v -3.337892 h 0.81102 c 0.74497,0 0.81102,0.04427 0.81102,0.543589 v 0.54359 l 0.56491,-0.539996 c 1.01392,-0.969198 2.26872,-0.91563 3.13786,0.133958 0.33328,0.402477 0.37145,0.407686 0.56765,0.07747 0.62072,-1.044698 2.42379,-1.17831 3.35556,-0.248655 0.4645,0.463457 0.48423,0.598891 0.48423,3.32448 v 2.84135 h -0.81102 -0.81102 v -2.11094 c 0,-2.346551 -0.17239,-3.040754 -0.79547,-3.203324 -1.26886,-0.331065 -1.6376,0.389393 -1.6376,3.199674 v 2.11459 H 43.5697 42.75868 v -2.32641 c 0,-2.056679 -0.047,-2.373317 -0.40551,-2.731001 -0.50663,-0.505485 -0.83864,-0.509681 -1.44751,-0.01829 -0.44479,0.358962 -0.48349,0.552228 -0.5468,2.731001 l -0.0681,2.3447 h -0.79357 -0.79357 z m 19.26175,0 v -3.337892 h 0.81102 c 0.74498,0 0.81102,0.04427 0.81102,0.543589 v 0.54359 l 0.57662,-0.551184 c 0.75124,-0.718101 1.748227,-0.865501 2.664645,-0.393952 1.061024,0.545954 1.212986,1.039992 1.216363,3.954463 l 0.003,2.57928 h -0.793573 -0.793574 l -0.06814,-2.31972 c -0.07617,-2.593196 -0.267077,-3.007422 -1.386051,-3.007422 -1.11897,0 -1.30988,0.414226 -1.38605,3.007422 l -0.0681,2.31972 h -0.79358 -0.79357 z m 10.948785,-1.22541 v -4.563303 l 0.86171,0.06221 0.86171,0.06221 0.05457,4.501096 0.05457,4.501101 h -0.916278 -0.916278 z m 3.44684,1.22541 v -3.337892 h 0.912399 c 0.854996,0 0.912399,0.0342 0.912399,0.543589 v 0.54359 L 74.74333,87.51607 c 0.720606,-0.683881 1.469838,-0.858501 2.3873,-0.556396 1.262462,0.415707 1.514101,1.095868 1.514982,4.094884 l 7.58e-4,2.57928 h -0.912399 -0.912399 v -2.40279 c 0,-2.663516 -0.11229,-2.924352 -1.258931,-2.924352 -1.118585,0 -1.376888,0.586113 -1.376888,3.124292 v 2.20285 h -0.912399 -0.912399 z m 28.588505,0 v -3.337892 h 0.91239 c 0.85993,0 0.91246,0.03199 0.91341,0.556316 l 10e-4,0.556315 0.45519,-0.555937 c 0.25036,-0.305765 0.75173,-0.613003 1.11415,-0.682751 0.65748,-0.126529 0.65896,-0.124946 0.65896,0.70766 0,0.815453 -0.0158,0.834473 -0.69493,0.834473 -0.50925,0 -0.80721,0.142421 -1.11516,0.533022 -0.36374,0.461378 -0.42022,0.814863 -0.42022,2.629858 v 2.09683 h -0.9124 -0.9124 z m 36.2932,-1.213779 v -4.55167 h 1.83639 c 3.29782,0 4.59511,0.675834 4.80133,2.50129 0.14189,1.25593 -0.0617,1.907335 -0.81582,2.610185 l -0.64305,0.599336 0.85741,1.578542 c 0.47158,0.8682 0.85742,1.6365 0.85742,1.70735 0,0.0708 -0.43339,0.10106 -0.96309,0.0671 l -0.96309,-0.0617 -0.81102,-1.51723 c -0.76841,-1.437507 -0.85097,-1.520517 -1.57135,-1.580004 l -0.76033,-0.06279 v 1.630584 1.63058 h -0.9124 -0.9124 z m 4.11912,-0.333729 c 0.58503,-0.307235 0.74016,-0.564598 0.7439,-1.234068 0.005,-0.911922 -0.6337,-1.365502 -1.92307,-1.365502 h -1.11515 v 1.416076 1.416075 h 0.92572 c 0.50915,0 1.12502,-0.104661 1.3686,-0.232581 z m 13.41867,4.632532 c -1.32024,-3.7431 -2.12839,-6.117049 -2.12839,-6.252205 0,-0.09389 0.39771,-0.170711 0.88379,-0.170711 h 0.88379 l 0.66747,2.333333 c 0.3671,1.283333 0.72932,2.371473 0.80492,2.418093 0.0756,0.0466 0.44741,-1.00338 0.82623,-2.33333 l 0.68878,-2.418096 h 0.94144 0.94145 l -0.96854,2.781577 c -1.49845,4.303449 -1.24344,3.894209 -2.42659,3.894209 -0.63739,0 -1.05889,-0.0957 -1.11435,-0.25287 z m 13.07826,-3.085024 v -3.337892 h 0.9124 c 0.85993,0 0.91246,0.03199 0.91341,0.556316 l 0.001,0.556315 0.45519,-0.555937 c 0.25035,-0.305765 0.75172,-0.613003 1.11414,-0.682751 0.65748,-0.126529 0.65896,-0.124946 0.65896,0.70766 0,0.815453 -0.0158,0.834473 -0.69493,0.834473 -0.50924,0 -0.80721,0.142421 -1.11515,0.533022 -0.36375,0.461378 -0.42023,0.814863 -0.42023,2.629858 v 2.09683 h -0.9124 -0.9124 z m 8.35978,-1.163205 0.0546,-4.501096 1.59726,-0.05955 c 2.44621,-0.0912 3.70779,0.24323 4.71832,1.250769 0.5435,0.541895 0.92817,1.159622 1.08701,1.745556 0.50721,1.871093 -0.14561,4.3601 -1.36603,5.20825 -0.95722,0.66523 -1.86254,0.85717 -4.04314,0.85717 h -2.10256 z m 4.78154,2.556309 c 1.4803,-0.96774 1.35931,-4.450281 -0.18225,-5.245648 -0.31397,-0.161994 -1.07721,-0.294534 -1.69608,-0.294534 h -1.12522 v 2.899583 c 0,1.594771 0.0684,2.969369 0.15206,3.054659 0.23409,0.23872 2.31522,-0.0635 2.85149,-0.41406 z m 19.29953,-1.393104 v -3.337892 h 0.9124 0.9124 v 3.337892 3.337894 h -0.9124 -0.9124 z m 11.55705,0 v -3.337892 h 0.9124 c 0.85148,0 0.9124,0.03574 0.9124,0.535281 v 0.535281 l 0.48486,-0.521991 c 0.63895,-0.687878 1.66981,-0.872356 2.63237,-0.471082 1.1001,0.458612 1.34339,1.212752 1.34339,4.164237 v 2.43406 h -0.9124 -0.9124 l -0.003,-2.27584 c -0.002,-1.251707 -0.0701,-2.375996 -0.15207,-2.498419 -0.52151,-0.779279 -1.82513,-0.722628 -2.26556,0.09845 -0.1183,0.220538 -0.21508,1.362813 -0.21508,2.538389 v 2.13741 h -0.91241 -0.9124 z M 200.65438,85.72807 c -0.72174,-0.419424 -0.31013,-1.602168 0.55758,-1.602168 0.85383,0 1.20619,0.891754 0.59378,1.502774 -0.36655,0.365723 -0.65083,0.390264 -1.15136,0.09939 z M 16.806,48.531513 v -32.78182 l 14.95321,0.0012 c 15.90925,0.0013 16.96306,0.05381 20.52897,1.023489 2.1411,0.582229 5.34062,2.159404 6.89368,3.398172 2.654427,2.117249 4.453014,4.936412 5.295483,8.3003 0.360117,1.437909 0.41215,2.135101 0.339704,4.551671 -0.0954,3.182415 -0.514778,4.780372 -1.819173,6.931666 -1.737344,2.865354 -5.391664,5.458296 -8.953804,6.353222 -0.67254,0.168965 -0.94487,0.339072 -0.94487,0.590205 0,0.282873 0.30563,0.402014 1.54155,0.600938 5.00724,0.805926 9.168932,3.882002 11.315534,8.363759 1.188864,2.482156 1.423186,3.684477 1.427363,7.323908 0.0032,2.773545 -0.06249,3.466369 -0.458931,4.841318 -1.888188,6.548693 -6.975146,10.87878 -14.940666,12.717702 -1.75487,0.40513 -2.46385,0.424048 -18.50142,0.493685 L 16.806,81.313338 Z m 30.07359,21.066086 c 2.11296,-0.576427 3.44397,-1.329702 4.52385,-2.560247 2.77308,-3.159963 2.3986,-8.5649 -0.80271,-11.585716 -0.5972,-0.563532 -1.64702,-1.307252 -2.33292,-1.652713 -2.24436,-1.130382 -3.07078,-1.224983 -10.73008,-1.228281 l -6.94437,-0.003 v 8.818963 8.818963 l 7.34988,-0.08759 c 6.71801,-0.08006 7.48627,-0.124799 8.93635,-0.520387 z M 44.58348,42.768854 c 2.6498,-0.858149 4.40988,-2.197575 5.45255,-4.149391 1.18982,-2.227279 1.26982,-5.248781 0.19464,-7.351533 -1.03039,-2.015152 -3.30509,-3.647351 -5.80924,-4.168376 -0.65242,-0.135746 -3.57915,-0.223555 -7.45125,-0.223555 h -6.37682 v 8.21015 8.210151 l 6.43748,-0.08315 c 5.47256,-0.07068 6.60464,-0.137282 7.55264,-0.444296 z M 76.821572,15.749693 H 90.60893 V 81.293751 H 76.821572 Z m 25.344418,-0.01864 15.56147,0.07046 15.56147,0.07045 2.12893,0.526153 c 6.61647,1.635223 11.02066,4.806392 13.7903,9.929501 1.73212,3.203974 2.43013,6.295832 2.43013,10.764393 0,5.753003 -1.27031,9.706596 -4.33298,13.485556 -1.26308,1.55849 -3.75788,3.526686 -5.70168,4.498163 -1.42353,0.711454 -1.50522,0.787609 -1.28649,1.199365 0.46794,0.880877 13.32774,24.324195 13.48381,24.73002 0.095,0.246863 -0.98637,0.288676 -7.4654,0.288676 h -7.57643 L 126.35486,58.130845 115.95335,58.022865 V 81.29379 h -13.78736 z m 27.48928,30.87219 c 4.03007,-0.769336 6.56292,-2.973449 7.4877,-6.515891 0.35699,-1.367499 0.39527,-4.254603 0.0765,-5.766963 -0.76228,-3.615986 -3.32621,-6.013365 -7.46994,-6.984691 -1.28526,-0.301276 -2.50055,-0.358514 -7.6121,-0.358514 h -6.08266 l -0.0526,9.963102 -0.0526,9.963101 h 6.06673 c 4.52137,0 6.46724,-0.07646 7.63901,-0.300144 z m 32.12078,-30.875603 14.54769,0.0797 c 15.92186,0.08722 15.58339,0.0642 20.12347,1.368726 2.66611,0.766067 6.45473,2.599352 8.7599,4.238853 5.72588,4.072407 9.8039,10.755665 11.30801,18.532139 1.68362,8.704584 0.5453,18.85906 -2.87556,25.651644 -3.41436,6.779662 -9.2201,11.691585 -16.58408,14.030885 -4.854,1.541958 -6.4654,1.664167 -21.94295,1.664167 h -13.33648 z m 27.01746,53.533216 c 8.21352,-1.235254 12.65924,-5.804436 14.27379,-14.670202 0.4932,-2.708225 0.48773,-9.43023 -0.01,-12.238936 -1.12378,-6.342111 -3.86827,-10.567012 -8.27232,-12.734531 -1.03732,-0.510529 -2.79843,-1.168227 -3.91358,-1.461551 -1.9468,-0.512074 -2.29203,-0.536908 -8.66779,-0.623508 l -6.64024,-0.09019 v 42.118655 l 5.62646,-0.0012 c 3.91255,-8.29e-4 6.22874,-0.09177 7.60364,-0.298545 z"
     id="path6"
     sodipodi:nodetypes="ssscsscccsscccsscsssssssssssssssssssssssssscsssssssscsssssscssssscsscssssssssscsssscssssssssssscsssssssssscsssssssssssssscssssssssssscssssscsssssssssscsssscssscsssssssssssssscsssssssssscssssssssssssssssssscssscscsssssssssssssssssssccssscsscccssccssccssssscssssscsscscsssssscscscccccssssccssssssssscccccsssssssssssssscssssscsssscccssssssssscsssssssssssssssssssssccsscsssssssssscsssscccsssscssscsssscsscccssssssssssscssscccccccsccsscccscssccssssssssssssssssssscsssscsssssssssssssscsssssssssssssscssssssssssssscccsscsssccssscccsscccccsccccsscsssscccccccsscssssscccssscccssscccccccsscssscccssccccccccccccccccsscssscccsssccccccsscssssssccccccssscssscssccccccscscccsscsscssscccsscccsscssssssccccccsssssccssscscscccccccccccsscssscccccssccccssssscccsssssssssssssccssssscccsssssssscccsssccccccccsssssscscccccccscsscccscccsssssssccsscsssccsss" />
</svg>
