<svg xmlns="http://www.w3.org/2000/svg" width="600" height="600">
    <path d="M215.691.084c-24.836-1.325-49.965 13.31-58.503 38.922l-9.073 27.21a24.977 24.977 0 0 0 15.795 31.595 24.977 24.977 0 0 0 31.596-15.795l9.07-27.211c1.93-5.788 7.246-7.357 12.014-3.543l46.265 37.006a103.36 103.36 0 0 1 36.801 60.455l5.516 27.58c7.422 37.103 34.236 67.47 70.135 79.433l54.43 18.141a167.1 167.1 0 0 1 66.962 42.027l28.672 29.479 1.193.959c12.595 10.12 20.88 24.551 23.395 40.465-.36 18.612-10.84 35.453-27.549 43.859l-9.857 4.959c-35.007 17.61-50.963 59.597-36.483 96.01l13.164 33.101a219 219 0 0 1 6.116 17.498 24.977 24.977 0 0 0 31.14 16.672 24.977 24.977 0 0 0 16.67-31.14 269 269 0 0 0-7.508-21.489l-13.164-33.101c-5.076-12.766.236-26.75 12.514-32.926l9.857-4.959c34.028-17.118 55.455-52.207 55.137-90.295l-.012-1.53-.2-1.517c-3.747-28.48-18.106-54.447-40.055-72.888l-27.22-27.987a217.1 217.1 0 0 0-86.98-54.588l-54.43-18.14a55.5 55.5 0 0 1-36.943-41.842l-5.517-27.58a153.36 153.36 0 0 0-54.582-89.666L247.79 12.252c-9.583-7.665-20.81-11.566-32.1-12.168m-91.19 127.154c-9.2-.424-18.494.116-27.73 1.655l-49.019 8.168c-39.144 6.522-60.25 52.218-39.83 86.246l22.476 37.455a125.3 125.3 0 0 0 89.68 59.535l72.541 10.361c18.588 2.655 33.565 16.162 38.117 34.37l.899 3.593.23.73c6.79 21.462 2.901 44.774-10.398 62.901-16.922 19.734-42.273 40.916-84.22 72.342a867 867 0 0 0-66.485 51.414 24.977 24.977 0 0 0-2.77 35.213 24.977 24.977 0 0 0 35.213 2.771 817 817 0 0 1 63.168-48.82l.346-.242.338-.252c43.25-32.397 71.604-55.472 93.021-80.658l.498-.584.46-.616c22.979-30.653 29.946-70.448 18.874-107.06l-.006-.024-.707-2.826c-9.444-37.771-40.97-66.198-79.515-71.703l-72.541-10.361a75.23 75.23 0 0 1-53.91-35.787l-22.477-37.455c-3.158-5.263-.852-10.26 5.209-11.27l49.02-8.168a81.88 81.88 0 0 1 64.63 16.83l82.04 65.62a24.977 24.977 0 0 0 35.105-3.903 24.977 24.977 0 0 0-3.904-35.108l-82.04-65.619a131.9 131.9 0 0 0-76.312-28.748"/>
</svg>