<?xml version="1.0" encoding="UTF-8" standalone="no"?>
<svg
   viewBox="0 0 800 800"
   xml:space="preserve"
   version="1.1"
   id="svg2"
   sodipodi:docname="launch.svg"
   width="800"
   height="800"
   inkscape:version="1.4 (e7c3feb100, 2024-10-09)"
   xmlns:inkscape="http://www.inkscape.org/namespaces/inkscape"
   xmlns:sodipodi="http://sodipodi.sourceforge.net/DTD/sodipodi-0.dtd"
   xmlns="http://www.w3.org/2000/svg"
   xmlns:svg="http://www.w3.org/2000/svg"><sodipodi:namedview
   id="namedview2"
   pagecolor="#ffffff"
   bordercolor="#000000"
   borderopacity="0.25"
   inkscape:showpageshadow="2"
   inkscape:pageopacity="0.0"
   inkscape:pagecheckerboard="0"
   inkscape:deskcolor="#d1d1d1"
   inkscape:zoom="0.25141574"
   inkscape:cx="-151.14407"
   inkscape:cy="1225.0625"
   inkscape:window-width="1920"
   inkscape:window-height="1043"
   inkscape:window-x="0"
   inkscape:window-y="0"
   inkscape:window-maximized="1"
   inkscape:current-layer="layer" />
          <defs
   id="defs">
   <filter x="-150%" y="-150%" width="400%" height="400%"
   color-interpolation-filters="sRGB" id="textBlurPrimary" >
  <feGaussianBlur in="SourceGraphic" stdDeviation="16.25" />
  <feOffset dx="0" dy="0" result="offsetblur" />
  <feFlood flood-color="#ffffff" flood-opacity="1" /> <!-- color-white -->
  <feComposite in2="offsetblur" operator="in" />
  <feMerge result="drop_shadow_0" >
    <feMergeNode/>
    <feMergeNode in="SourceGraphic" />
  </feMerge>

  <feGaussianBlur in="drop_shadow_0" stdDeviation="32.5" />
  <feOffset dx="0" dy="0" result="offsetblur" />
  <feFlood flood-color="#c6257d" flood-opacity="1" /> <!-- color-primary -->
  <feComposite in2="offsetblur" operator="in" />
  <feMerge result="drop_shadow_1" >
    <feMergeNode/>
    <feMergeNode in="drop_shadow_0" />
  </feMerge>

  <feGaussianBlur in="drop_shadow_1" stdDeviation="65" />
  <feOffset dx="0" dy="0" result="offsetblur" />
  <feFlood flood-color="#c6257d" flood-opacity="1" /> <!-- color-primary -->
  <feComposite in2="offsetblur" operator="in" />
  <feMerge result="drop_shadow_2" >
    <feMergeNode/>
    <feMergeNode in="drop_shadow_1" />
  </feMerge>
</filter>
   
   </defs>
            <g
   id="layer">
            
              <path
   d="m 497.15887,82.964584 c -16.08962,-3.9189 -33.41023,-2.77531 -49.36167,4.05482 l -22.97968,9.84143 c -41.03408,17.571076 -74.55621,49.051706 -94.66759,88.902316 l -4.68819,9.29661 c -13.40497,26.56923 -21.31344,55.5692 -23.25236,85.26529 l -6.81434,104.40293 c -0.89866,13.7774 9.54127,25.67485 23.31863,26.57414 13.77712,0.8981 25.67399,-9.54181 26.57317,-23.31886 l 6.81337,-104.40317 c 1.50161,-22.98476 7.62328,-45.4306 17.99889,-65.99515 l 4.69447,-9.30126 c 14.80597,-29.34636 39.49033,-52.52861 69.70729,-65.46541 l 22.97969,-9.84144 c 11.67806,-5.00044 24.96365,-1.76451 33.03424,8.04604 l 28.5894,34.75484 c 12.60798,15.32379 19.31619,34.65346 18.91145,54.49322 l -0.7116,35.23957 c -0.46834,23.06233 -5.5414,45.79846 -14.92108,66.87243 l -24.29891,54.59032 0.61606,-1.27852 c -13.27742,25.79404 -16.0262,55.73427 -7.66741,83.51472 0.13579,0.45338 0.28442,0.90282 0.44572,1.34776 12.5996,34.61708 19.15404,71.14262 19.37694,107.98068 l 0.0167,3.07943 c 0.12358,19.86705 -6.84323,39.12673 -19.64816,54.31715 l -7.93148,9.41136 c -3.59718,4.26796 -7.18042,3.3952 -8.41207,-2.0489 l -2.71527,-12.00455 -0.006,-0.0169 c -5.5709,-24.52453 -9.42174,-49.40827 -11.52439,-74.46952 l -0.004,-0.0247 C 467.76198,522.35868 443.0262,493.42618 409.46341,485.2514 l -19.22885,-4.68351 c -33.22676,-8.39656 -68.33959,5.51212 -86.81272,34.37945 l -0.11219,0.17749 c -13.54485,21.57051 -28.57977,42.16862 -44.99501,61.64398 l -7.92879,9.41304 c -3.59719,4.26796 -7.18043,3.39521 -8.41208,-2.0489 l -2.71503,-12.00552 c -4.38536,-19.3774 -1.71523,-39.68361 7.53043,-57.26863 l 29.35001,-55.83535 c 6.42292,-12.22422 1.71853,-27.34071 -10.50686,-33.76141 -12.22111,-6.42416 -27.33608,-1.72514 -33.76075,10.4957 l -29.34272,55.83918 c -14.77711,28.11867 -19.04533,60.58452 -12.03814,91.56713 l 2.71619,11.99654 c 9.6453,42.63147 67.24245,56.66022 95.41163,23.2391 l 7.92764,-9.40406 c 17.91458,-21.25696 34.32255,-43.73925 49.10413,-67.28273 l -0.11311,0.1855 c 6.97581,-10.90082 19.90078,-16.01748 32.4477,-12.8462 l 19.64468,4.7848 c 12.84644,3.12896 22.07873,13.92956 23.17343,27.10691 l 0.006,0.0169 c 2.29554,27.38765 6.50194,54.58144 12.58849,81.38269 l 2.71294,11.98031 c 9.64554,42.63051 67.24268,56.65926 95.41261,23.23934 l 7.9269,-9.40526 c 20.47008,-24.28951 31.61003,-55.08123 31.41929,-86.84549 l -0.0172,-3.08161 c -0.25602,-42.13955 -7.71037,-83.91626 -21.98437,-123.55922 -4.58493,-15.33732 -3.05185,-31.85431 4.27762,-46.08576 0.21718,-0.42066 0.42237,-0.84741 0.61532,-1.27973 l 24.29868,-54.58935 c 12.09078,-27.1644 18.6296,-56.47163 19.23217,-86.1992 l 0.70874,-35.23203 c 0.643,-31.77343 -10.09879,-62.72918 -30.28478,-87.27485 l -28.5913,-34.74706 C 528.10115,95.863394 513.24544,86.882724 497.15582,82.963834 M 467.32647,205.382 c -13.41494,-3.26744 -26.93867,4.95874 -30.2061,18.37368 -3.26743,13.41493 4.95875,26.93866 18.37368,30.20609 13.70338,3.33769 21.71113,16.50369 18.37368,30.20609 -3.33745,13.70241 -16.50271,21.71137 -30.2061,18.37368 -13.70338,-3.33769 -21.71112,-16.50368 -18.37367,-30.20609 3.26743,-13.41493 -4.95875,-26.93866 -18.37368,-30.20609 -13.41493,-3.26743 -26.93866,4.95874 -30.20609,18.37367 -9.73216,39.95686 15.16417,80.88612 55.12103,90.61828 39.95686,9.73216 80.88611,-15.16417 90.61828,-55.12103 9.73216,-39.95686 -15.1632,-80.88588 -55.12103,-90.61828"
   style="fill:#f2f0f5;fill-opacity:1;filter:url(#textBlurPrimary)"
   id="path2"
   sodipodi:nodetypes="ccccccccccccccccccccccccccccccccscccccccccccccccccccsccccccccccccccccccsssssssssc"
   inkscape:label="path2" />
          </g>
        </svg>
