<?xml version="1.0" encoding="UTF-8" standalone="no"?>
<!-- Created with Inkscape (http://www.inkscape.org/) -->

<svg
   version="1.1"
   id="svg1"
   width="3104"
   height="522.66669"
   viewBox="0 0 3104 522.66669"
   sodipodi:docname="ros-equation.svg"
   inkscape:version="1.4 (e7c3feb100, 2024-10-09)"
   xmlns:inkscape="http://www.inkscape.org/namespaces/inkscape"
   xmlns:sodipodi="http://sodipodi.sourceforge.net/DTD/sodipodi-0.dtd"
   xmlns="http://www.w3.org/2000/svg"
   xmlns:svg="http://www.w3.org/2000/svg">
  <defs
     id="defs1" />
  <sodipodi:namedview
     id="namedview1"
     pagecolor="#ffffff"
     bordercolor="#000000"
     borderopacity="0.25"
     inkscape:showpageshadow="2"
     inkscape:pageopacity="0.0"
     inkscape:pagecheckerboard="0"
     inkscape:deskcolor="#d1d1d1"
     inkscape:zoom="0.36984536"
     inkscape:cx="1242.4111"
     inkscape:cy="262.27178"
     inkscape:window-width="1920"
     inkscape:window-height="1043"
     inkscape:window-x="0"
     inkscape:window-y="0"
     inkscape:window-maximized="1"
     inkscape:current-layer="g1" />
  <g
     inkscape:groupmode="layer"
     inkscape:label="Image"
     id="g1">
    <path
       style="fill:#f2f0f5;fill-opacity:1"
       d="m 2073.1038,447.40537 v -32.00002 h 4.2667 c 3.5338,0 4.2666,0.36092 4.2666,2.10119 0,1.99278 0.2003,1.96527 3.8822,-0.53333 5.5109,-3.73981 15.3246,-3.74307 20.8228,-0.007 6.1163,4.15611 8.895,10.99927 8.895,21.90571 0,14.117 -5.097,22.32219 -15.2888,24.61215 -4.8446,1.0885 -11.2743,-0.2734 -15.283,-3.23715 l -3.0282,-2.23885 v 10.6986 10.6986 h -4.2666 -4.2667 z m 27.6087,6.79392 c 3.5429,-2.48154 5.458,-7.85955 5.458,-15.32727 0,-11.45306 -4.0472,-17.06667 -12.3045,-17.06667 -3.3955,0 -5.0034,0.66832 -7.2503,3.01363 -6.6247,6.91465 -6.6348,21.70596 -0.019,28.32138 3.3224,3.32239 10.153,3.8348 14.1161,1.05893 z m 964.3913,22.00608 c 0,-3.00073 0.2554,-3.2 4.1013,-3.2 4.6562,0 6.6716,-1.75446 8.735,-7.6039 1.3205,-3.74357 1.0623,-4.60665 -7.8688,-26.30546 -5.0788,-12.33919 -9.2342,-22.71744 -9.2342,-23.06277 0,-0.34534 2.04,-0.62393 4.5334,-0.6191 l 4.5333,0.009 7.0311,17.73904 7.0311,17.73905 6.9876,-17.48117 6.9876,-17.48115 4.3813,-0.328 c 2.5546,-0.19125 4.3813,0.13851 4.3813,0.79092 0,2.29766 -21.5808,55.16089 -24.0876,59.00376 -2.6038,3.99148 -2.6252,4 -10.0609,4 h -7.4515 z m -2292.26664,-30.4 v -32.53335 h 4.26667 c 3.5338,0 4.26667,0.36091 4.26667,2.10119 0,1.99278 0.20029,1.96526 3.88218,-0.53333 5.51092,-3.73981 15.32456,-3.74307 20.82282,-0.007 6.11627,4.15612 8.895,10.99928 8.895,21.90572 0,14.117 -5.09699,22.32219 -15.28884,24.61215 -4.84457,1.0885 -11.27427,-0.27341 -15.28295,-3.23715 l -3.02821,-2.23886 v 11.23194 11.23193 h -4.26667 -4.26667 z m 27.60867,6.26059 c 3.54291,-2.48155 5.458,-7.85955 5.458,-15.32727 0,-11.45306 -4.04721,-17.06667 -12.30444,-17.06667 -3.39553,0 -5.00338,0.66831 -7.25034,3.01363 -6.62465,6.91465 -6.63474,21.70595 -0.0193,28.32138 3.32239,3.32239 10.153,3.83479 14.1161,1.05893 z m 325.45797,25.32391 c -2.2269,-0.61477 -2.7208,-1.4768 -2.9947,-5.22701 -0.1804,-2.46995 -0.119,-4.49083 0.1364,-4.49083 0.2555,0 2.2544,0.74789 4.4421,1.66196 5.145,2.14972 13.2666,2.18732 17.3411,0.0803 3.2148,-1.66242 6.6751,-8.08965 6.6751,-12.39836 0,-1.96005 -0.2232,-1.92815 -3.8822,0.55492 -5.1999,3.52875 -13.9611,3.94247 -19.7789,0.93398 -13.349,-6.90306 -13.9799,-35.10267 -0.9812,-43.85819 5.2718,-3.55087 15.3815,-3.45677 20.7601,0.19324 3.6819,2.49859 3.8822,2.52611 3.8822,0.53333 0,-1.74028 0.7329,-2.10119 4.2667,-2.10119 h 4.2666 l -0.01,23.73334 c 0,13.05334 -0.5017,25.51843 -1.1077,27.70021 -1.4122,5.08478 -5.8293,10.32316 -10.269,12.17817 -3.6199,1.51249 -17.9505,1.8313 -22.7507,0.50613 z m 20.6408,-27.44951 c 6.5492,-6.54924 6.5394,-20.40888 -0.019,-27.25471 -5.1107,-5.33447 -14.3429,-3.6845 -17.8183,3.18446 -3.7998,7.51037 -2.7439,18.70457 2.2578,23.93526 3.9451,4.12576 11.5234,4.19143 15.5799,0.13499 z m 1051.5027,13.46257 c -1.9744,-0.46485 -4.9744,-1.86883 -6.6667,-3.11997 l -3.0768,-2.27479 v 2.6986 c 0,2.43725 -0.4132,2.6986 -4.2667,2.6986 h -4.2666 v -33.06668 -33.06667 h 4.2666 4.2667 v 11.16785 11.16786 l 3.8822,-2.63452 c 3.0837,-2.09267 5.2266,-2.63452 10.419,-2.63452 8.2546,0 13.1801,3.04045 16.7847,10.36095 3.609,7.32929 3.6017,21.03013 -0.015,28.37611 -4.0449,8.21546 -12.6332,12.3741 -21.3273,10.32718 z m 9.3318,-9.20364 c 3.5429,-2.48154 5.458,-7.85955 5.458,-15.32727 0,-11.45306 -4.0472,-17.06667 -12.3044,-17.06667 -3.3955,0 -5.0034,0.66832 -7.2503,3.01363 -6.6247,6.91465 -6.6348,21.70596 -0.019,28.32138 3.3224,3.32239 10.153,3.8348 14.1161,1.05893 z m -225.4438,6.77229 c -12.0137,-6.80439 -15.2117,-26.80178 -6.2224,-38.9094 5.4596,-7.35349 18.6365,-10.38892 29.3909,-6.77053 3.7136,1.24947 4,1.64535 4,5.52976 0,2.30117 -0.1814,4.18394 -0.4031,4.18394 -0.2217,0 -2.1262,-0.72 -4.2324,-1.6 -2.1061,-0.88 -6.42,-1.6 -9.5864,-1.6 -9.838,0 -14.5781,5.65412 -14.5781,17.38929 0,7.56688 2.6009,12.90114 7.4987,15.37946 3.6011,1.8222 12.0261,1.7032 16.6658,-0.2354 2.1062,-0.88 4.0107,-1.6 4.2324,-1.6 0.2217,0 0.4031,1.84402 0.4031,4.09783 0,3.83296 -0.2665,4.17768 -4.1238,5.33333 -7.0951,2.12574 -18.1948,1.54858 -23.0447,-1.19828 z m 43.0547,0.83708 c -4.6075,-2.5043 -6.7408,-6.77781 -6.7636,-13.54889 -0.038,-11.35236 6.0098,-15.78775 21.5274,-15.78775 9.2942,0 9.8833,-0.13205 9.8833,-2.21538 0,-1.21846 -1.403,-3.61846 -3.1179,-5.33334 -2.7657,-2.76564 -3.8543,-3.11795 -9.6343,-3.11795 -3.5839,0 -8.2395,0.72 -10.3456,1.6 -2.1062,0.88 -4.0107,1.6 -4.2324,1.6 -0.2217,0 -0.4031,-1.90149 -0.4031,-4.22555 0,-4.05998 0.1776,-4.27554 4.5333,-5.50146 2.4934,-0.70175 7.6736,-1.29908 11.5117,-1.32739 9.1444,-0.0675 14.4363,2.58297 17.7794,8.90479 2.2572,4.26858 2.4423,5.9392 2.4423,22.05073 v 17.43223 h -4.2667 c -3.5338,0 -4.2667,-0.36091 -4.2667,-2.10119 0,-1.99278 -0.2003,-1.96526 -3.8821,0.53334 -3.1841,2.16074 -5.1503,2.62684 -10.9334,2.59181 -3.9838,-0.0241 -8.2607,-0.70013 -9.8316,-1.554 z m 18.7659,-8.18239 c 3.2672,-2.57002 5.8812,-7.92728 5.8812,-12.05332 0,-2.57766 -0.2799,-2.70066 -6.1333,-2.69498 -7.8466,0.008 -13.815,1.67277 -15.1874,4.23727 -1.7552,3.27956 -1.2519,8.3842 1.0541,10.69013 2.9929,2.9929 10.4712,2.8998 14.3854,-0.1791 z m 87.9007,8.18239 c -4.6075,-2.5043 -6.7408,-6.77781 -6.7635,-13.54889 -0.038,-11.35236 6.0098,-15.78775 21.5274,-15.78775 9.2942,0 9.8833,-0.13205 9.8833,-2.21538 0,-1.21846 -1.4031,-3.61846 -3.1179,-5.33334 -2.7657,-2.76564 -3.8543,-3.11795 -9.6343,-3.11795 -3.584,0 -8.2395,0.72 -10.3457,1.6 -2.1061,0.88 -4.0107,1.6 -4.2324,1.6 -0.2217,0 -0.403,-1.90149 -0.403,-4.22555 0,-4.05998 0.1776,-4.27554 4.5333,-5.50146 2.4933,-0.70175 7.6736,-1.29908 11.5117,-1.32739 9.1444,-0.0675 14.4363,2.58297 17.7793,8.90479 2.2573,4.26858 2.4423,5.9392 2.4423,22.05073 v 17.43223 h -4.2666 c -3.5338,0 -4.2667,-0.36091 -4.2667,-2.10119 0,-1.99278 -0.2003,-1.96526 -3.8822,0.53334 -3.184,2.16074 -5.1502,2.62684 -10.9333,2.59181 -3.9839,-0.0241 -8.2607,-0.70013 -9.8317,-1.554 z m 18.7659,-8.18239 c 3.2673,-2.57002 5.8813,-7.92728 5.8813,-12.05332 0,-2.57766 -0.2799,-2.70066 -6.1333,-2.69498 -7.8466,0.008 -13.815,1.67277 -15.1875,4.23727 -1.7551,3.27956 -1.2518,8.3842 1.0541,10.69013 2.9929,2.9929 10.4713,2.8998 14.3854,-0.1791 z m 107.2146,-23.28758 v -33.06667 h 4.2667 4.2667 v 33.06667 33.06668 h -4.2667 -4.2667 z m 114.2882,31.9254 c -8.5286,-3.41591 -13.9974,-12.13362 -14.0051,-22.3254 -0.012,-16.21254 8.5276,-25.93667 22.8527,-26.0215 12.9103,-0.0764 19.9501,6.64992 20.6915,19.77028 l 0.4135,7.31789 h -17.1871 c -17.1136,0 -17.187,0.0102 -17.183,2.4 0.01,3.52496 3.7029,8.9891 7.3625,10.88155 4.4581,2.30537 13.8707,2.07901 20.3891,-0.49032 l 5.4346,-2.14211 -0.3284,4.51361 c -0.3091,4.24808 -0.5795,4.5889 -4.5951,5.79347 -5.0933,1.52782 -20.3042,1.72081 -23.8452,0.30253 z m 21.1785,-30.28829 c 0,-1.44625 -1.4897,-4.32625 -3.3105,-6.4 -2.8574,-3.2544 -3.9596,-3.77045 -8.053,-3.77045 -5.9379,0 -10.5229,2.31278 -12.6184,6.36509 -3.2302,6.24639 -2.9026,6.43492 11.1819,6.43492 h 12.8 z m 21.0667,30.1467 c -3.8382,-1.01942 -4,-1.24813 -4,-5.65395 v -4.59156 l 5.3447,2.03085 c 7.3727,2.80139 17.4021,2.75065 20.2553,-0.10247 4.9199,-4.91995 1.9444,-8.40763 -9.9227,-11.63056 -10.0522,-2.73004 -13.024,-4.54322 -14.5309,-8.86568 -2.5001,-7.17191 0.052,-14.12874 6.3829,-17.40287 3.6743,-1.90005 17.2032,-2.33189 22.8707,-0.73003 2.8021,0.792 3.2401,1.44605 3.5228,5.26039 l 0.3228,4.35594 -4.0562,-1.44678 c -2.2308,-0.79573 -7.0561,-1.46786 -10.7228,-1.49361 -5.2853,-0.0371 -7.1087,0.3952 -8.8,2.08652 -3.9743,3.97438 -1.8881,7.68519 5.3814,9.57181 2.3202,0.60217 6.2296,1.61786 8.6875,2.25709 2.5038,0.65117 6.0217,2.71496 8,4.69334 3.0488,3.04879 3.5311,4.25451 3.5311,8.82725 0,9.81876 -6.2046,14.18721 -19.8945,14.00694 -4.6047,-0.0606 -10.1721,-0.58831 -12.3721,-1.17262 z m 229.0982,-1.15092 c -12.0138,-6.80439 -15.2118,-26.80178 -6.2225,-38.9094 5.4597,-7.35349 18.6365,-10.38892 29.3909,-6.77053 3.7137,1.24947 4,1.64535 4,5.52976 0,2.30117 -0.1813,4.18394 -0.403,4.18394 -0.2217,0 -2.1263,-0.72 -4.2324,-1.6 -2.1062,-0.88 -6.4201,-1.6 -9.5865,-1.6 -9.838,0 -14.5781,5.65412 -14.5781,17.38929 0,7.56688 2.6009,12.90114 7.4987,15.37946 3.6012,1.8222 12.0261,1.7032 16.6659,-0.2354 2.1061,-0.88 4.0107,-1.6 4.2324,-1.6 0.2217,0 0.403,1.84402 0.403,4.09783 0,3.83296 -0.2665,4.17768 -4.1237,5.33333 -7.0951,2.12574 -18.1949,1.54858 -23.0447,-1.19828 z m 45.8128,-0.15773 c -2.4077,-1.44343 -5.449,-4.59726 -6.9334,-7.18991 -2.305,-4.02587 -2.6443,-5.91899 -2.6443,-14.75192 0,-9.17164 0.2828,-10.61435 2.9794,-15.2018 3.9235,-6.67475 9.6401,-9.69412 18.3539,-9.69412 12.5721,0 20.3859,7.43133 21.5724,20.51649 1.1656,12.85399 -2.4959,22.22444 -10.4255,26.68116 -5.8638,3.29563 -17.0996,3.11907 -22.9025,-0.3599 z m 19.0774,-7.50095 c 3.7911,-3.51345 4.9449,-6.92384 4.9449,-14.61578 0,-11.06743 -4.2296,-16.89177 -12.2667,-16.89177 -8.088,0 -12.2666,5.81375 -12.2666,17.06667 0,7.23096 2.1209,12.9899 5.7097,15.50359 3.613,2.53065 10.5768,1.99742 13.8787,-1.06271 z m 200.2477,8.80177 c -6.9137,-3.7105 -8.5763,-9.69119 -8.6107,-30.97598 l -0.025,-15.73334 h 4.2666 4.2667 l 0.064,13.06667 c 0.082,16.80366 1.1029,23.03747 4.1821,25.53086 3.3111,2.68117 9.681,2.50133 13.3397,-0.37661 4.8844,-3.84202 5.8813,-7.87402 5.8813,-23.78666 v -14.43426 h 4.2666 4.2667 v 23.46667 23.46668 h -4.2667 c -3.9192,0 -4.2666,-0.23341 -4.2666,-2.86623 v -2.86623 l -3.2358,3.10005 c -2.805,2.68736 -4.1895,3.1456 -10.4,3.4422 -4.445,0.21228 -8.1374,-0.18012 -9.7281,-1.03382 z m -1901.826,-0.84507 c -1.9744,-0.46485 -4.9744,-1.86884 -6.66661,-3.11997 l -3.07683,-2.2748 v 2.6986 c 0,2.43726 -0.4132,2.6986 -4.26666,2.6986 h -4.26667 v -33.06667 -33.06667 h 4.26667 4.26666 v 11.16785 11.16786 l 3.88224,-2.63452 c 3.0836,-2.09267 5.2266,-2.63453 10.419,-2.63453 8.2545,0 13.1801,3.04046 16.7847,10.36096 3.6089,7.32929 3.6016,21.03012 -0.015,28.37611 -4.0449,8.21545 -12.6331,12.37409 -21.3273,10.32718 z m 9.3319,-9.20364 c 3.5429,-2.48155 5.458,-7.85955 5.458,-15.32727 0,-11.45306 -4.0472,-17.06667 -12.3045,-17.06667 -3.3955,0 -5.0034,0.66831 -7.2503,3.01363 -6.62463,6.91465 -6.63472,21.70595 -0.019,28.32138 3.3225,3.32239 10.1531,3.83479 14.1162,1.05893 z m 1218.258,-13.19394 v -23.46667 h 4.2666 4.2667 v 23.46667 23.46668 h -4.2667 -4.2666 z m 46.9333,0 v -23.46667 h 4.2667 4.2666 v 23.46667 23.46668 h -4.2666 -4.2667 z m 28.6465,21.84918 c -4.2072,-2.28557 -5.1798,-6.71846 -5.1798,-23.60835 v -15.3075 h -2.6667 c -2.2519,0 -2.6667,-0.49777 -2.6667,-3.2 0,-2.70222 0.4148,-3.2 2.6667,-3.2 2.5709,0 2.6667,-0.24888 2.6667,-6.93333 v -6.93333 h 4.2666 4.2667 v 6.93333 6.93333 h 8 8 v 3.2 3.2 h -8 -8 v 14.47013 c 0,7.95858 0.4969,15.39858 1.1042,16.53334 0.9169,1.71321 2.274,2.06321 8,2.06321 h 6.8958 v 3.73334 3.73333 l -8.2667,-0.0427 c -5.0889,-0.0263 -9.3507,-0.63164 -11.0868,-1.57479 z m 27.8868,-21.84918 v -23.46667 h 4.2667 4.2667 v 23.46667 23.46668 h -4.2667 -4.2667 z m 396.8,0 v -23.46667 h 4.2667 c 3.5338,0 4.2667,0.36092 4.2667,2.10119 0,1.99278 0.2003,1.96527 3.8821,-0.53333 7.195,-4.88263 19.7702,-3.0217 23.1483,3.42557 l 1.4845,2.83327 1.805,-2.75479 c 4.0617,-6.19896 17.6971,-8.41598 23.5321,-3.82615 5.2073,4.09606 6.2199,8.28276 6.7288,27.82092 l 0.4653,17.86667 h -4.8528 -4.8529 l -0.3369,-18.22986 c -0.3267,-17.67802 -0.4131,-18.29154 -2.855,-20.26668 -4.7723,-3.86003 -13.3412,-1.61035 -16.2749,4.27282 -0.8655,1.73562 -1.5282,8.58589 -1.7887,18.49039 l -0.4139,15.73333 h -4.1689 -4.1688 v -16.5863 c 0,-20.7071 -1.2457,-23.94705 -9.2069,-23.94705 -4.2966,0 -8.9851,3.07981 -10.6105,6.96992 -1.0657,2.55078 -1.5159,8.07307 -1.5159,18.59584 v 14.96759 h -4.2667 -4.2667 z m 83.2,0 v -23.46667 h 4.2667 c 3.5338,0 4.2667,0.36092 4.2667,2.10119 0,1.99278 0.2003,1.96527 3.8821,-0.53333 7.195,-4.88263 19.7702,-3.0217 23.1483,3.42557 l 1.4845,2.83327 1.805,-2.75479 c 4.0617,-6.19896 17.6971,-8.41598 23.5321,-3.82615 5.2073,4.09606 6.2199,8.28276 6.7288,27.82092 l 0.4653,17.86667 h -4.8528 -4.8529 l -0.3369,-18.22986 c -0.3267,-17.67802 -0.4131,-18.29154 -2.855,-20.26668 -4.7723,-3.86003 -13.3412,-1.61035 -16.2749,4.27282 -0.8655,1.73562 -1.5282,8.58589 -1.7887,18.49039 l -0.4139,15.73333 h -4.1689 -4.1688 v -16.5863 c 0,-20.7071 -1.2457,-23.94705 -9.2069,-23.94705 -4.2966,0 -8.9851,3.07981 -10.6105,6.96992 -1.0657,2.55078 -1.5159,8.07307 -1.5159,18.59584 v 14.96759 h -4.2667 -4.2667 z m 137.6,0 v -23.46667 h 4.2667 c 3.5807,0 4.2667,0.34915 4.2667,2.17179 0,2.08934 0.1511,2.06909 3.9809,-0.53333 3.1339,-2.12952 5.3013,-2.70512 10.1863,-2.70512 7.806,0 11.8826,2.07597 14.6223,7.44615 1.899,3.72236 2.1438,6.27762 2.1438,22.37803 v 18.17583 h -4.2667 -4.2666 v -16.98483 c 0,-16.71646 -0.044,-17.03669 -2.7615,-20.26667 -3.1472,-3.74024 -8.0192,-4.38087 -13.1477,-1.72883 -5.2998,2.74062 -6.4908,7.13391 -6.4908,23.94153 v 15.0388 h -4.2667 -4.2667 z m 54.4,0 v -23.46667 h 4.2667 4.2667 v 23.46667 23.46668 h -4.2667 -4.2667 z m 28.6465,21.84918 c -4.2072,-2.28557 -5.1798,-6.71846 -5.1798,-23.60835 v -15.3075 h -2.6667 c -2.2518,0 -2.6666,-0.49777 -2.6666,-3.2 0,-2.70222 0.4148,-3.2 2.6666,-3.2 2.571,0 2.6667,-0.24888 2.6667,-6.93333 v -6.93333 h 4.2667 4.2666 v 6.93333 6.93333 h 8 8 v 3.2 3.2 h -8 -8 v 14.47013 c 0,7.95858 0.4969,15.39858 1.1042,16.53334 0.9169,1.71321 2.274,2.06321 8,2.06321 h 6.8958 v 3.73334 3.73333 l -8.2666,-0.0427 c -5.089,-0.0263 -9.3508,-0.63164 -11.0869,-1.57479 z M 827.23716,428.20536 v -33.06667 h 4.26667 4.26667 v 33.06667 33.06667 h -4.26667 -4.26667 z m 31.03616,31.77598 c -6.91377,-3.71051 -8.57628,-9.69119 -8.61071,-30.97598 l -0.0255,-15.73334 h 4.26667 4.26667 l 0.0636,13.06667 c 0.0818,16.80365 1.10291,23.03746 4.18212,25.53086 3.3111,2.68116 9.681,2.50132 13.33971,-0.37661 4.88434,-3.84203 5.88125,-7.87403 5.88125,-23.78666 v -14.43426 h 4.26667 4.26667 v 23.46667 23.46668 h -4.26664 c -3.91922,0 -4.26667,-0.23341 -4.26667,-2.86623 v -2.86624 l -3.23575,3.10005 c -2.805,2.68737 -4.18948,3.1456 -10.4,3.4422 -4.44498,0.21229 -8.13738,-0.18011 -9.72809,-1.03381 z m 694.80818,-1.30083 c -2.4077,-1.44342 -5.449,-4.59725 -6.9334,-7.18991 -2.305,-4.02587 -2.6443,-5.91898 -2.6443,-14.75191 0,-9.17164 0.2828,-10.61435 2.9794,-15.2018 3.9235,-6.67476 9.6401,-9.69413 18.3539,-9.69413 12.5721,0 20.3859,7.43134 21.5724,20.5165 1.1656,12.85399 -2.4959,22.22444 -10.4255,26.68116 -5.8638,3.29563 -17.0996,3.11906 -22.9025,-0.35991 z m 19.0774,-7.50095 c 3.7911,-3.51344 4.9449,-6.92383 4.9449,-14.61577 0,-11.06743 -4.2296,-16.89177 -12.2667,-16.89177 -8.088,0 -12.2666,5.81374 -12.2666,17.06667 0,7.23096 2.1209,12.9899 5.7097,15.50359 3.613,2.53065 10.5768,1.99742 13.8787,-1.06272 z m 33.1892,7.50095 c -2.4076,-1.44342 -5.4489,-4.59725 -6.9333,-7.18991 -2.305,-4.02587 -2.6443,-5.91898 -2.6443,-14.75191 0,-9.17164 0.2827,-10.61435 2.9793,-15.2018 3.9236,-6.67476 9.6402,-9.69413 18.354,-9.69413 12.5721,0 20.3859,7.43134 21.5724,20.5165 1.1656,12.85399 -2.4959,22.22444 -10.4256,26.68116 -5.8638,3.29563 -17.0995,3.11906 -22.9025,-0.35991 z m 19.0775,-7.50095 c 3.791,-3.51344 4.9449,-6.92383 4.9449,-14.61577 0,-11.06743 -4.2296,-16.89177 -12.2667,-16.89177 -8.088,0 -12.2667,5.81374 -12.2667,17.06667 0,7.23096 2.121,12.9899 5.7098,15.50359 3.613,2.53065 10.5767,1.99742 13.8787,-1.06272 z m 26.2782,-22.9742 v -33.06667 h 4.2667 4.2666 v 33.06667 33.06667 h -4.2666 -4.2667 z m 24.2667,31.7838 c -3.8382,-1.01941 -4,-1.24812 -4,-5.65394 v -4.59156 l 5.3447,2.03085 c 7.3727,2.80139 17.4021,2.75065 20.2553,-0.10248 4.9199,-4.91995 1.9444,-8.40763 -9.9227,-11.63056 -10.0522,-2.73003 -13.024,-4.54322 -14.5309,-8.86567 -2.5001,-7.17192 0.052,-14.12874 6.3829,-17.40287 3.6743,-1.90006 17.2032,-2.3319 22.8707,-0.73003 2.8021,0.792 3.2401,1.44605 3.5228,5.26039 l 0.3228,4.35594 -4.0562,-1.44679 c -2.2308,-0.79573 -7.0561,-1.46785 -10.7228,-1.4936 -5.2853,-0.0371 -7.1087,0.3952 -8.8,2.08651 -3.9743,3.97439 -1.8881,7.6852 5.3814,9.57182 2.3202,0.60217 6.2296,1.61786 8.6875,2.25709 2.5038,0.65117 6.0217,2.71495 8,4.69333 3.0488,3.04878 3.5311,4.2545 3.5311,8.82726 0,9.81875 -6.2046,14.18721 -19.8945,14.00694 -4.6047,-0.0606 -10.1721,-0.58832 -12.3721,-1.17263 z M 905.10383,436.73869 v -23.46667 h 4.26667 c 3.53379,0 4.26666,0.36091 4.26666,2.10119 0,1.99278 0.2003,1.96526 3.88219,-0.53333 7.19495,-4.88263 19.77017,-3.0217 23.14823,3.42556 l 1.4845,2.83328 1.80501,-2.75479 c 4.06172,-6.19897 17.69712,-8.41598 23.53215,-3.82615 5.20728,4.09605 6.21988,8.28275 6.72875,27.82091 l 0.46534,17.86668 h -4.85284 -4.85285 l -0.3369,-18.22988 c -0.32671,-17.678 -0.41314,-18.29152 -2.85508,-20.26666 -4.77229,-3.86004 -13.34117,-1.61036 -16.27487,4.27281 -0.86548,1.73563 -1.52816,8.5859 -1.78872,18.49039 l -0.4139,15.73334 h -4.16884 -4.16883 v -16.58631 c 0,-20.70709 -1.24566,-23.94704 -9.20688,-23.94704 -4.29663,0 -8.98509,3.0798 -10.61049,6.96992 -1.06578,2.55078 -1.51597,8.07307 -1.51597,18.59583 v 14.9676 h -4.26666 -4.26667 z m 137.59997,0 v -23.46667 h 4.2667 4.2666 v 23.46667 23.46668 h -4.2666 -4.2667 z m 23.4667,0 v -23.46667 h 4.2666 c 3.5808,0 4.2667,0.34915 4.2667,2.17179 0,2.08934 0.1511,2.06909 3.9809,-0.53333 3.1339,-2.12952 5.3014,-2.70513 10.1863,-2.70513 7.806,0 11.8827,2.07598 14.6223,7.44616 1.899,3.72236 2.1438,6.27762 2.1438,22.37802 v 18.17584 h -4.2666 -4.2667 v -16.98484 c 0,-16.71645 -0.044,-17.03668 -2.7615,-20.26667 -3.1472,-3.74023 -8.0192,-4.38086 -13.1476,-1.72883 -5.2998,2.74063 -6.4909,7.13392 -6.4909,23.94154 v 15.0388 h -4.2667 -4.2666 z m 452.1131,21.84918 c -4.2072,-2.28558 -5.1798,-6.71846 -5.1798,-23.60835 v -15.3075 h -2.6667 c -2.2518,0 -2.6666,-0.49778 -2.6666,-3.2 0,-2.70222 0.4148,-3.2 2.6666,-3.2 2.571,0 2.6667,-0.24889 2.6667,-6.93333 v -6.93334 h 4.2667 4.2666 v 6.93334 6.93333 h 8 8 v 3.2 3.2 h -8 -8 v 14.47013 c 0,7.95856 0.4969,15.39858 1.1042,16.53334 0.9169,1.7132 2.274,2.06321 8,2.06321 h 6.8958 v 3.73333 3.73334 l -8.2666,-0.0427 c -5.089,-0.0263 -9.3508,-0.63164 -11.0869,-1.57479 z m 715.8869,-55.98252 v -5.33333 h 4.2666 4.2667 v 5.33333 5.33334 h -4.2667 -4.2666 z m 46.9333,0 v -5.33333 h 4.2667 4.2666 v 5.33333 5.33334 h -4.2666 -4.2667 z m 56.5333,0 v -5.33333 h 4.2667 4.2667 v 5.33333 5.33334 h -4.2667 -4.2667 z m 672,0 v -5.33333 h 4.2667 4.2667 v 5.33333 5.33334 h -4.2667 -4.2667 z m -1966.9333,-2.13333 v -5.33333 h 4.2667 4.2666 v 5.33333 5.33333 h -4.2666 -4.2667 z m 712,-37.81631 c -0.5867,-0.2184 -2.5067,-0.70806 -4.2667,-1.08815 -2.391,-0.51636 -18.705,-16.15304 -64.5333,-61.85404 -33.7333,-33.63963 -62.9808,-61.98819 -64.9943,-62.99679 -2.4672,-1.23581 -7.8586,-2.09519 -16.5334,-2.63536 -14.3713,-0.89488 -21.055,-2.90878 -29.9146,-9.01373 -7.1146,-4.90251 -12.8041,-11.89117 -16.7963,-20.63173 -2.7148,-5.94374 -3.3599,-8.91796 -3.7878,-17.46252 -0.6038,-12.05729 0.227,-17.96805 2.5256,-17.96805 0.8814,0 6.6635,5.00615 12.8492,11.12477 17.6608,17.46923 21.2962,18.12899 33.7471,6.12443 8.2878,-7.99072 10.373,-11.28857 10.3672,-16.39622 -0.01,-5.1035 -3.0971,-9.46606 -15.5988,-22.01319 -6.1221,-6.1444 -10.9603,-11.69697 -10.7515,-12.33905 0.5663,-1.74197 8.9365,-3.65091 16.4351,-3.74823 14.3013,-0.18561 26.7623,4.82396 36.5622,14.69882 11.223,11.30878 14.957,21.07411 14.957,39.1161 0,18.91967 -4.4203,13.18336 62.3241,80.87941 32.3084,32.76909 59.7025,61.08487 60.8759,62.92394 1.6429,2.57517 2.1233,5.11659 2.0898,11.05647 -0.038,6.81026 -0.4183,8.24666 -3.2473,12.27607 -1.7622,2.50985 -5.1026,5.6035 -7.4232,6.87478 -3.9766,2.17847 -12.5396,3.94575 -14.886,3.07227 z m 994.6667,-76.85036 v -53.86667 h 17.1368 c 17.7359,0 20.2708,-0.49951 23.6394,-4.65818 2.0117,-2.48343 2.5875,-10.78508 0.8238,-11.87515 -1.7268,-1.0672 -1.2211,-10.07607 0.7531,-13.41819 4.5422,-7.68925 16.3569,-8.31381 22.5285,-1.1909 2.1353,2.46457 2.4082,3.6834 1.9554,8.73661 -0.2893,3.22986 -0.8615,7.43917 -1.2715,9.35401 -0.9695,4.52858 0.9157,8.96725 4.7776,11.24852 2.526,1.49213 6.0151,1.80328 20.2214,1.80328 h 17.1688 v 19.67038 c 0,10.81871 -0.4223,19.93138 -0.9384,20.25038 -0.5162,0.31899 -3.2436,-0.64565 -6.0609,-2.14364 -13.3813,-7.11488 -28.7466,-2.22943 -34.599,11.00082 -9.186,20.76636 12.5568,41.93736 32.6175,31.75986 9.1289,-4.63136 8.9808,-4.83353 8.9808,12.2622 v 14.93334 h -53.8667 -53.8666 z m 118.396,37.6 c 0,-19.1693 -1.0483,-22.15132 -8.5377,-24.39519 -3.9216,-1.17493 -4.9536,-1.05699 -9.9177,1.13343 -10.0463,4.43295 -12.6337,4.85889 -16.9818,2.79558 -13.1488,-6.23953 -9.2288,-25.15839 5.2057,-25.12407 2.2562,0.005 6.5021,1.19036 9.4355,2.63331 7.3781,3.62943 12.3883,3.504 16.7831,-0.42015 l 3.4835,-3.11043 0.3266,-22.48957 0.3265,-22.48958 h 18.6769 c 11.6543,0 19.553,-0.44802 21.0068,-1.19151 6.177,-3.15894 7.7233,-10.03469 3.9299,-17.47516 -4.7122,-9.24278 -0.9884,-18.65081 8.0538,-20.34713 5.2488,-0.98469 9.7058,0.39497 12.6749,3.92362 4.1536,4.93626 4.4963,9.42218 1.245,16.29503 -3.1997,6.76354 -3.3432,8.19974 -1.2282,12.28972 3.0835,5.96292 5.1753,6.50543 25.0836,6.50543 h 18.1709 v 53.86667 53.86667 h -53.8667 -53.8666 z m -1271.8915,12.8 c -0.8495,-1.32 -3.5092,-8.46832 -5.9102,-15.88516 -2.4011,-7.41683 -4.9904,-14.00363 -5.7539,-14.63731 -2.0635,-1.71256 -15.6615,-4.63684 -18.3841,-3.95353 -1.2986,0.32595 -7.0318,5.63639 -12.7403,11.80098 -6.2903,6.79278 -11.192,11.20835 -12.4423,11.20835 -1.1348,0 -4.3156,-1.25055 -7.0685,-2.779 -2.7529,-1.52846 -7.9595,-4.42422 -11.5704,-6.43502 -3.6108,-2.0108 -7.1324,-4.33964 -7.8259,-5.17519 -0.9886,-1.19124 -0.4349,-4.8441 2.5651,-16.92202 2.1043,-8.47156 3.81,-16.05217 3.7905,-16.8458 -0.02,-0.79363 -2.8578,-4.56297 -6.3074,-8.3763 l -6.2719,-6.93333 -16.635,3.42971 c -9.1492,1.88635 -17.2461,3.19521 -17.9931,2.90858 -1.7828,-0.68413 -13.5571,-24.37129 -13.5571,-27.27374 0,-1.46836 4.06,-6.11706 11.7333,-13.43469 10.5053,-10.0183 11.7333,-11.57472 11.7333,-14.87064 0,-5.73274 -2.1766,-13.51816 -4.3046,-15.39675 -1.0617,-0.93731 -8.4914,-4.05731 -16.5105,-6.93334 l -14.5801,-5.22914 0.6559,-8 c 0.3607,-4.4 1.1854,-11.75798 1.8326,-16.35107 1.3954,-9.90213 0.3947,-9.24836 19.0401,-12.43915 7.3333,-1.25495 14.0533,-2.63444 14.9333,-3.06551 1.3762,-0.67414 8.3177,-13.18563 8.4773,-15.27957 0.031,-0.40442 -4.264,-6.5274 -9.544,-13.60664 -5.6012,-7.50988 -9.6,-13.8973 -9.6,-15.33439 0,-1.493517 3.5941,-6.949297 9.1306,-13.860037 7.2961,-9.10722 9.6759,-11.39697 11.845,-11.39697 1.4929,0 8.3042,2.32658 15.1361,5.17018 6.8319,2.8436 13.3242,5.49254 14.4274,5.88654 2.4751,0.88403 10.6474,-3.69368 12.9977,-7.28064 1.4546,-2.22002 1.5018,-4.41386 0.391,-18.17794 -1.0596,-13.13095 -1.0257,-15.89072 0.2108,-17.12718 1.9634,-1.9634 25.7933,-10.07095 29.6008,-10.07095 2.5089,0 3.8548,1.22826 8.23,7.51064 14.9806,21.51071 13.7351,20.22269 19.5556,20.22269 2.8786,0 5.9834,-0.28761 6.8994,-0.63912 0.9161,-0.35152 5.1339,-7.12442 9.373,-15.0509 4.2392,-7.92647 8.3495,-14.65813 9.1342,-14.95923 1.9183,-0.73611 31.2179,6.31736 32.8199,7.90093 0.8049,0.79569 1.4809,7.01321 1.8555,17.06667 0.3242,8.69824 0.9161,16.62786 1.3155,17.62138 0.8237,2.04908 8.1888,6.1936 11.0064,6.1936 1.0247,0 2.8099,-0.65959 3.9671,-1.46575 5.3552,-3.73068 24.0205,-13.46758 25.8169,-13.46758 2.1532,0 24.8205,22.27551 24.8205,24.39155 0,0.68403 -3.6,7.43674 -8,15.006027 -4.4,7.56929 -8,14.54048 -8,15.49154 0,3.24288 4.3473,10.26101 6.9749,11.26002 1.4415,0.54808 9.1106,1.3222 17.0424,1.72026 7.9318,0.39806 15.0968,1.25029 15.9224,1.89384 1.3125,1.0232 3.0186,7.4983 7.2836,27.64292 0.8644,4.08261 0.7819,5.44466 -0.4009,6.62347 -0.819,0.81618 -7.2491,4.40273 -14.2891,7.97009 -7.04,3.56737 -13.64,7.47998 -14.6667,8.6947 -2.2113,2.61634 -2.5468,11.37107 -0.5333,13.91734 0.7333,0.9274 6.9733,5.84691 13.8667,10.93225 9.3843,6.92298 12.5333,9.83427 12.5333,11.58712 0,1.28756 -1.92,7.37856 -4.2667,13.53554 -2.3466,6.15698 -4.2666,11.81081 -4.2666,12.56407 0,4.66306 -4.5621,0.96723 -27.724,-22.45969 l -24.705,-24.98772 -0.2653,-16.95833 c -0.2391,-15.28622 -0.5529,-17.79973 -3.1824,-25.49167 -10.2446,-29.96738 -32.1707,-50.93423 -62.5233,-59.788187 -10.8471,-3.16413 -35.1311,-2.93452 -45.8667,0.43367 -11.8668,3.723067 -20.7194,8.028137 -28.6517,13.933387 -44.4908,33.12158 -49.3649,95.24908 -10.5528,134.50995 18.5515,18.76603 47.1572,29.04056 72.02,25.86797 l 9.3178,-1.18899 12.5334,12.43276 c 6.8933,6.83803 12.5333,12.79383 12.5333,13.23513 0,0.4413 -1.6789,1.50386 -3.7309,2.36125 -4.6237,1.93188 -5.141,3.15922 -8.5709,20.3364 -1.5229,7.62667 -3.338,14.42697 -4.0336,15.11178 -1.3578,1.33691 -17.2286,3.54695 -25.5067,3.55189 -4.0619,0.002 -5.3423,-0.46353 -6.5867,-2.397 z m 541.4421,-10.61333 c -0.9504,-0.95041 -1.28,-11.66222 -1.28,-41.6 v -40.32001 h -14.2346 c -12.4357,0 -14.4578,-0.24652 -16,-1.95065 -1.5605,-1.72423 -1.7654,-5.68025 -1.7654,-34.08083 0,-19.19935 0.4688,-34.31617 1.1649,-37.56187 1.5027,-7.00686 6.5875,-13.63799 13.2772,-17.31507 l 5.2913,-2.90841 48.1364,-0.0249 c 52.8552,-0.0274 52.0402,-0.11674 59.62,6.53848 2.1098,1.85238 4.8876,5.3334 6.1731,7.73561 2.2486,4.20222 2.3497,5.70914 2.6688,39.78303 0.227,24.24427 -0.037,36.10448 -0.8375,37.60001 -1.0895,2.03567 -2.1485,2.18462 -15.5317,2.18462 h -14.3625 v 39.22933 c 0,33.77924 -0.2307,39.55869 -1.6605,41.6 -1.5808,2.25705 -2.3733,2.37068 -16.5333,2.37068 h -14.8728 v -39.92381 c 0,-34.87215 -0.2121,-40.13591 -1.6762,-41.6 -2.1052,-2.10516 -3.0758,-2.10516 -5.181,0 -1.4641,1.46409 -1.6762,6.72785 -1.6762,41.6 v 39.92381 h -14.72 c -10.0266,0 -15.1281,-0.40812 -16,-1.28 z M 896.03716,312.28787 c -11.13056,-3.41337 -19.95273,-11.64341 -23.95887,-22.35079 -2.05494,-5.49231 -2.17446,-8.15477 -2.17446,-48.43841 v -42.62666 h 31.46667 31.46666 v 57.60001 57.6 l -15.73333,-0.0743 c -10.92007,-0.0516 -17.36495,-0.57465 -21.06667,-1.70985 z m 41.06667,-30.21585 v -32.00001 h 31.46667 31.4667 v 32.00001 32 h -31.4667 -31.46667 z m 67.19997,-25.6 v -57.60001 h 32 32 l -0.018,39.2 c -0.02,42.99431 -0.7039,49.68605 -5.9283,58.03304 -8.5971,13.73569 -18.6488,17.96697 -42.6816,17.96697 h -15.3721 z m 1323.9692,42.3713 c -6.8715,-6.9331 -8.0108,-9.91065 -4.9597,-12.96178 2.6568,-2.65682 6.9246,-2.02934 10.631,1.56305 l 3.342,3.23923 8.8582,-13.37257 c 8.233,-12.42884 9.096,-13.37257 12.2287,-13.37257 4.0243,0 5.9306,1.64333 5.9306,5.11261 0,1.46746 -4.8175,9.76568 -11.3322,19.52 -10.6408,15.93216 -11.5375,16.96739 -14.6975,16.96739 -2.7137,0 -4.6501,-1.29631 -10.0011,-6.69536 z m -55.9692,-4.05674 c -2.1725,-1.26535 -2.5552,-7.33272 -0.5867,-9.30123 0.8619,-0.86186 5.728,-1.28 14.8958,-1.28 12.3699,0 13.7169,0.1888 14.72,2.06321 1.5841,2.95993 1.3623,6.05963 -0.572,7.99393 -1.3366,1.33663 -4.1997,1.66962 -14.1333,1.64376 -6.8514,-0.0178 -13.2971,-0.52169 -14.3238,-1.11967 z M 353.39365,277.43772 c -26.67927,-9.09235 -42.34026,-39.11548 -39.9036,-76.49778 2.93532,-45.03252 31.11087,-71.73824 68.48454,-64.91189 22.42698,4.09632 38.9684,22.51324 44.84524,49.92989 1.13494,5.29471 1.72837,13.11758 1.70787,22.51407 -0.0529,24.26389 -5.86828,41.3887 -18.72944,55.1536 -10.92996,11.69799 -22.20156,16.33518 -39.5852,16.28553 -7.2002,-0.0206 -11.46039,-0.64705 -16.81941,-2.47342 z m 31.09253,-22.11576 c 14.29409,-6.30733 22.5081,-23.70875 22.4658,-47.59385 -0.0547,-30.87176 -12.09143,-48.84409 -33.63886,-50.22692 -18.43061,-1.18281 -31.26889,9.94984 -36.3309,31.50414 -1.28597,5.47574 -1.56821,10.77628 -1.17854,22.13335 0.56661,16.51423 2.29791,23.28355 8.37837,32.75912 8.25772,12.86854 25.77695,17.83434 40.30413,11.42416 z m 100.88432,23.85471 c -11.94881,-2.88193 -25.2681,-10.17279 -32.49965,-17.79001 l -3.69965,-3.89696 7.57067,-7.57067 7.57068,-7.57068 6.99151,5.35871 c 10.49076,8.04072 17.10196,10.30629 30.06644,10.30335 8.89261,-0.002 11.39832,-0.38848 15.06582,-2.32364 11.38763,-6.00867 14.56192,-19.02291 6.58542,-26.99941 -4.42817,-4.42817 -10.67454,-7.37945 -26.98458,-12.74964 -27.03076,-8.90007 -36.09857,-15.45607 -40.07737,-28.97582 -1.90297,-6.46621 -1.31405,-20.20855 1.14804,-26.78907 7.39183,-19.75642 32.39817,-29.74841 58.0382,-23.19079 10.11667,2.5874 17.55608,6.51571 24.28472,12.8233 l 5.12042,4.8 -7.36917,8 -7.36917,8 -3.02117,-2.79986 c -5.80606,-5.38077 -11.77616,-8.44997 -19.63505,-10.09425 -17.705,-3.70435 -30.85278,3.05923 -30.85278,15.87151 0,9.10316 5.52739,13.12334 28.8,20.94681 17.90848,6.02023 27.57597,10.80979 33.56218,16.62772 6.45345,6.27204 9.18227,12.57301 9.88494,22.82479 1.59306,23.24232 -9.86268,39.13858 -31.96002,44.34847 -6.3062,1.48681 -26.3157,2.02912 -31.22043,0.84614 z M 11.52587,276.81371 c -5.999553,-2.77194 -8.8129202,-7.50779 -8.81805,-14.84378 -0.00729,-10.41918 5.2315657,-15.63125 15.711569,-15.63125 6.250503,0 6.886462,0.23757 10.613885,3.965 3.599034,3.59903 3.999825,4.58355 4.342354,10.66666 0.299484,5.31869 -0.0651,7.40639 -1.766715,10.11656 -4.117774,6.55841 -12.877018,9.05617 -20.083043,5.72681 z m 55.553008,0.92617 c -4.372801,-1.30994 -9.6828,-7.42535 -10.574476,-12.17839 -2.070871,-11.03869 4.925358,-19.75614 15.855385,-19.75614 9.350963,0 16.184649,7.75098 15.352059,17.41279 -0.914639,10.61395 -10.696311,17.49841 -20.632968,14.52174 z m 52.180322,-0.92617 c -6.01176,-2.77757 -8.81293,-7.50518 -8.81805,-14.88246 -0.007,-10.66837 6.76735,-16.87411 17.31493,-15.86062 4.28842,0.41206 6.01059,1.23311 9.13042,4.35295 3.46614,3.46613 3.88229,4.5056 4.22246,10.54676 0.29948,5.31869 -0.0651,7.40639 -1.76672,10.11656 -4.11777,6.55841 -12.87701,9.05617 -20.08304,5.72681 z m 65.84463,-69.48407 v -70.4757 l 36,0.36426 c 33.93065,0.34332 36.35861,0.49844 42.23868,2.69866 11.24248,4.20674 18.46073,11.13144 22.9217,21.98951 3.66047,8.90968 3.85341,25.89468 0.39419,34.7017 -4.44289,11.31139 -10.57761,17.70855 -21.07257,21.97402 l -5.55432,2.25744 6.91373,14.34958 c 3.80255,7.89226 9.95538,20.70957 13.67295,28.48291 l 6.75922,14.13333 -12.47012,-0.0322 -12.47013,-0.0322 -13.32834,-27.7011 -13.32833,-27.7011 h -14.67167 -14.67166 v 27.73333 27.73334 H 195.7705 185.10383 Z m 72.45843,-8.45763 c 6.52252,-3.68106 9.6749,-9.83175 9.6749,-18.87693 0,-10.31712 -3.74769,-16.56569 -12.00478,-20.01572 -3.11131,-1.29999 -8.58521,-1.64068 -26.36096,-1.64068 h -22.43426 v 21.94125 21.94125 l 23.2,-0.34125 c 22.46379,-0.33042 23.34995,-0.42587 27.9251,-3.00792 z m 1041.14154,32.53334 v -26.13334 h -26.1333 -26.1334 v -8 -8 h 26.1334 26.1333 v -26.66667 -26.66666 h 8 8 v 26.66666 26.66667 h 26.1333 26.1334 v 8 8 h -26.1334 -26.1333 v 26.13334 26.13333 h -8 -8 z m 618.6667,0 v -26.13334 h -26.1334 -26.1333 v -8 -8 h 26.1333 26.1334 v -26.66667 -26.66666 h 8 8 v 26.66666 26.66667 h 26.1333 26.1333 v 8 8 h -26.1333 -26.1333 v 26.13334 26.13333 h -8 -8 z m 608,-2.13334 v -26.13333 h -26.1334 -26.1333 v -8 -8 h 26.1333 26.1334 v -26.66667 -26.66667 h 8 8 v 26.66667 26.66667 h 26.1333 26.1333 v 8 8 h -26.1333 -26.1333 v 26.13333 26.13334 h -8 -8 z m -197.0975,7.70464 c -6.8715,-6.9331 -8.0108,-9.91065 -4.9597,-12.96178 2.6934,-2.69333 7.1605,-2.05633 10.5754,1.50801 l 3.0506,3.18419 8.837,-13.23127 c 9.196,-13.76888 11.5343,-15.71929 15.9879,-13.33576 4.6974,2.51394 3.3934,6.12822 -8.8286,24.47079 -10.6377,15.96476 -11.5822,17.06118 -14.6975,17.06118 -2.6695,0 -4.6443,-1.3268 -9.9651,-6.69536 z m -56.0705,-4.85529 c -2.065,-2.28174 -2.3156,-6.67244 -0.4854,-8.50268 0.8619,-0.86185 5.728,-1.28 14.8958,-1.28 12.3699,0 13.7169,0.1888 14.72,2.06321 1.7569,3.2828 1.293,6.21694 -1.2664,8.00964 -1.8007,1.26125 -5.2232,1.66048 -14.2347,1.66048 -10.139,0 -12.1207,-0.28362 -13.6293,-1.95065 z M 11.52587,222.37727 c -5.9983993,-2.72295 -8.8129046,-7.4491 -8.81805,-14.80735 -0.00729,-10.41917 5.2315657,-15.63124 15.711569,-15.63124 6.250503,0 6.886462,0.23757 10.613885,3.965 3.599034,3.59903 3.999825,4.58354 4.342354,10.66666 0.302831,5.37812 -0.05976,7.39858 -1.835922,10.23036 -2.232848,3.55988 -9.359937,7.62446 -13.369206,7.62446 -1.173334,0 -4.163417,-0.92155 -6.64463,-2.04789 z m 55.553008,0.96261 c -4.372801,-1.30994 -9.6828,-7.42535 -10.574476,-12.17839 -2.070871,-11.0387 4.925358,-19.75614 15.855385,-19.75614 9.350963,0 16.184649,7.75098 15.352059,17.41279 -0.914639,10.61395 -10.696311,17.49841 -20.632968,14.52174 z m 52.180322,-0.96261 c -5.9984,-2.72295 -8.8129,-7.4491 -8.81805,-14.80735 -0.007,-10.41917 5.23157,-15.63124 15.71157,-15.63124 6.2505,0 6.88646,0.23757 10.61388,3.965 3.59904,3.59903 3.99983,4.58354 4.34236,10.66666 0.30283,5.37812 -0.0598,7.39858 -1.83592,10.23036 -2.23285,3.55988 -9.35994,7.62446 -13.36921,7.62446 -1.17333,0 -4.16342,-0.92155 -6.64463,-2.04789 z m 517.04463,-6.97192 v -8 h 60.26667 60.26666 v 8 8 H 696.5705 636.30383 Z M 2868.8371,196.18502 v -25.08699 l 2.9334,0.82033 c 1.6133,0.45117 5.6059,0.79348 8.8724,0.76067 13.7608,-0.13821 23.841,-13.59721 20.2293,-27.00998 -1.2336,-4.58157 -7.081,-12.05393 -11.1431,-14.23975 -5.1817,-2.78832 -12.7077,-2.90677 -19.0253,-0.29944 -1.6929,0.69866 -1.8667,-0.0844 -1.8667,-8.4104 v -9.18078 h 53.3334 53.3333 v 53.86666 53.86667 h -15.8222 c -8.7022,0 -16.1013,-0.27905 -16.4424,-0.62011 -0.341,-0.34106 0.2884,-2.62106 1.3988,-5.06666 2.7471,-6.05023 2.6921,-14.99679 -0.1258,-20.46236 -4.2202,-8.18552 -14.1221,-14.42281 -22.7984,-14.36078 -7.3173,0.0523 -17.1558,6.59081 -20.8301,13.84325 -3.7039,7.31065 -3.6231,11.12514 0.5135,24.26666 l 0.7554,2.4 h -16.6577 -16.6578 z m -130.9673,8.20663 c -1.8226,-4.00419 -6.7391,-15.15517 -10.9256,-24.77995 -4.1865,-9.62477 -8.4947,-19.43763 -9.5737,-21.80636 -1.0791,-2.36872 -5.3162,-11.97774 -9.4158,-21.35338 -4.0997,-9.37564 -8.7506,-19.92662 -10.3354,-23.44662 -5.2988,-11.76872 -5.3209,-10.8565 0.3233,-13.402477 2.7653,-1.24737 14.3879,-6.34171 25.8279,-11.32076 11.44,-4.97904 22.24,-9.72174 24,-10.53933 7.2814,-3.3825 52.399,-23.08934 53.9766,-23.57639 1.797,-0.55476 3.1851,1.87217 8.9452,15.63896 1.5955,3.81333 3.3896,7.53333 3.9868,8.26667 1.8718,2.29829 5.2164,1.4686 9.4318,-2.33973 6.1903,-5.59257 16.0888,-6.42655 22.3012,-1.87896 8.5212,6.23763 8.4575,21.94756 -0.1138,28.050847 -1.7767,1.26517 -5.5835,2.44898 -9.0136,2.80299 -4.5086,0.46533 -6.3051,1.1732 -7.4632,2.9408 -1.612,2.46014 -2.1429,1.08225 18.2855,47.45216 1.9291,4.3788 3.3119,8.27781 3.0729,8.66448 -0.239,0.38668 -4.6439,2.50595 -9.7886,4.70949 -5.1448,2.20355 -12.8692,5.62453 -17.1654,7.60219 -4.2962,1.97765 -8.9018,3.59573 -10.2347,3.59573 -3.5365,0 -5.9514,-3.26916 -5.9716,-8.08399 -0.034,-8.18881 -7.2814,-16.58745 -15.6712,-18.16138 -11.4185,-2.14213 -23.3661,9.80098 -21.2246,21.21655 0.3829,2.04066 2.245,5.75858 4.138,8.26203 1.8931,2.50346 3.8727,5.12584 4.3991,5.82751 0.5264,0.70167 0.6394,2.54121 0.2512,4.08787 -0.7461,2.9728 -0.8521,3.03344 -19.875,11.36525 -5.5733,2.44107 -11.527,5.12407 -13.2305,5.96223 -1.7035,0.83816 -3.6656,1.52393 -4.3602,1.52393 -0.6946,0 -2.7541,-3.27616 -4.5766,-7.28036 z M 865.8505,193.32535 c -0.8965,-0.8965 -1.28,-6.78604 -1.28,-19.65715 0,-15.28427 0.2821,-18.65924 1.67619,-20.05333 1.45253,-1.45254 6.1391,-1.67619 35.12381,-1.67619 28.9847,0 33.67127,0.22365 35.12381,1.67619 1.39531,1.39532 1.67619,4.78504 1.67619,20.22914 0,17.25107 -0.14478,18.63043 -2.06321,19.65714 -3.10001,1.65907 -68.58578,1.49521 -70.25679,-0.1758 z m 134.7962,-0.39619 c -1.39124,-1.39123 -1.6762,-4.73305 -1.6762,-19.65715 0,-14.9241 0.28496,-18.26591 1.6762,-19.65714 1.4525,-1.45254 6.1391,-1.67619 35.1238,-1.67619 28.9847,0 33.6712,0.22365 35.1238,1.67619 1.3953,1.39532 1.6762,4.78504 1.6762,20.22914 0,17.25107 -0.1448,18.63043 -2.0632,19.65714 -1.295,0.69302 -14.3742,1.1042 -35.1239,1.1042 -28.6328,0 -33.285,-0.22449 -34.7367,-1.67619 z M 636.30383,177.00535 v -8.00001 h 60.26667 60.26666 v 8.00001 8 H 696.5705 636.30383 Z m 1692.08887,-1.95556 c -7.6108,-7.61075 -8.6507,-11.15356 -4.1411,-14.10831 3.2106,-2.10369 5.6928,-1.40215 9.6488,2.727 l 3.0389,3.17192 8.9289,-13.36889 c 4.9109,-7.3529 9.684,-13.65869 10.607,-14.01288 0.923,-0.35419 2.9421,-0.20241 4.4867,0.33729 2.1009,0.73402 2.8907,1.82256 3.1347,4.32007 0.2649,2.71117 -1.5249,6.11631 -9.5207,18.11408 -5.4158,8.1264 -10.8063,15.85528 -11.9788,17.17528 -3.6076,4.06139 -6.7515,3.09737 -14.2044,-4.35556 z m -56.6756,-5.19111 c -1.9128,-1.91279 -1.5445,-6.68329 0.6707,-8.68802 2.7475,-2.48642 24.1627,-2.56753 27.6787,-0.10483 2.5594,1.7927 3.0233,4.72683 1.2664,8.00964 -1.0031,1.87441 -2.3501,2.06321 -14.72,2.06321 -9.1678,0 -14.0339,-0.41815 -14.8958,-1.28 z M 13.903833,169.33591 c -3.492937,-0.94908 -7.9241411,-4.55648 -9.6160949,-7.82836 -0.8711479,-1.68461 -1.5839053,-5.74535 -1.5839053,-9.02387 0,-5.43291 0.3605089,-6.34743 4.0697843,-10.32397 3.4800359,-3.73078 4.8455649,-4.43756 9.4233569,-4.87743 5.973661,-0.574 9.9314,0.96267 14.173185,5.50299 3.385726,3.62402 4.352088,13.56103 1.798935,18.49829 -3.129806,6.05238 -11.707907,9.83408 -18.265261,8.05235 z m 52.213785,-0.71478 c -9.569798,-4.31394 -13.076567,-17.62976 -6.758236,-25.66222 9.794735,-12.45199 29.745086,-4.39051 28.359032,11.45923 -0.960051,10.97833 -12.264877,18.4115 -21.600796,14.20299 z m 55.519542,0.71478 c -3.49293,-0.94908 -7.92414,-4.55648 -9.61609,-7.82836 -0.87115,-1.68461 -1.58391,-5.74535 -1.58391,-9.02387 0,-5.43291 0.36051,-6.34743 4.06979,-10.32397 3.48003,-3.73078 4.84556,-4.43756 9.42335,-4.87743 5.97367,-0.574 9.9314,0.96267 14.17319,5.50299 3.38573,3.62402 4.35209,13.56103 1.79893,18.49829 -3.1298,6.05238 -11.7079,9.83408 -18.26526,8.05235 z M 951.30689,152.9979 c -1.28165,-0.51639 -2.84165,-1.89441 -3.46666,-3.06226 -0.73181,-1.36739 -1.1364,-13.54136 -1.1364,-34.19351 0,-30.647897 0.0946,-32.164727 2.13333,-34.203457 1.95893,-1.95892 3.55556,-2.13333 19.52947,-2.13333 13.33324,0 17.8797,0.35332 19.46666,1.51281 1.95468,1.42816 2.0887,3.26354 2.39506,32.799997 0.17849,17.20796 0.0446,32.80507 -0.29743,34.66024 -0.47211,2.56035 -1.42391,3.65261 -3.95037,4.53333 -3.93774,1.37271 -31.3117,1.44074 -34.67366,0.0862 z m 134.31471,-0.0315 c -1.3285,-0.53374 -2.8885,-2.21456 -3.4666,-3.73517 -0.6012,-1.58118 -1.0512,-15.77891 -1.0512,-33.16542 0,-29.961397 0.3756,-33.673487 3.6264,-35.844097 0.6455,-0.43102 9.1864,-0.79102 18.9798,-0.8 17.2003,-0.0158 17.8627,0.0643 19.4666,2.35433 1.4128,2.01693 1.6584,7.07043 1.646,33.866667 -0.01,17.3228 -0.2887,32.51749 -0.6238,33.76597 -0.335,1.24849 -1.791,2.80849 -3.2356,3.46667 -3.1549,1.43747 -31.8064,1.51128 -35.3416,0.091 z m -89.0511,-4.03188 -2.93334,-0.33751 V 116.66783 84.738673 h 42.13334 42.1333 v 32.000007 32 l -2.4,0.008 c -1.32,0.005 -18.96,0.12451 -39.2,0.26667 -20.24,0.14216 -38.11997,0.10659 -39.7333,-0.079 z m 1164.3458,-10.20244 c -9.8258,-3.20954 -17.8616,-10.58998 -22.4554,-20.62416 -2.3975,-5.23698 -2.6194,-6.85291 -2.2142,-16.12802 0.5257,-12.032757 2.4933,-16.800227 10.0543,-24.361257 21.3819,-21.38183 57.5804,-9.70901 62.3837,20.11666 2.605,16.175747 -5.8633,32.425557 -20.3809,39.108637 -7.1028,3.26973 -20.3599,4.18369 -27.3875,1.88814 z m 167.4764,-25.54896 c -7.4607,-7.46068 -8.5839,-11.04284 -4.3849,-13.983957 3.5458,-2.48354 5.7462,-2.04046 9.5097,1.914807 l 3.4018,3.5753 7.4659,-11.308627 c 9.3991,-14.23709 11.0905,-16.10863 14.5579,-16.10863 3.5385,0 5.3607,1.7983 5.3607,5.29027 0,2.42291 -17.2583,30.139907 -22.1106,35.509727 -3.1785,3.51759 -6.6095,2.30216 -13.8005,-4.88889 z m -56.6756,-5.19111 c -2.0843,-2.08438 -1.5818,-8.083407 0.7832,-9.349137 1.1348,-0.60731 7.5805,-1.10419 14.3239,-1.10419 9.7237,0 12.6074,0.34681 13.9367,1.67619 1.9343,1.934297 2.1561,5.033997 0.572,7.993927 -1.0031,1.87441 -2.3501,2.06321 -14.72,2.06321 -9.1678,0 -14.0339,-0.41815 -14.8958,-1.28 z"
       id="path1" />
  </g>
</svg>
